<svg xmlns="http://www.w3.org/2000/svg" viewBox="0 0 128 128" style="enable-background:new 0 0 128 128" xml:space="preserve">
  <path fill="#fff" d="M28.8 49.9H54c1 0 1.8-.8 1.8-1.8v-6.8c0-1-.8-1.8-1.8-1.8H28.8c-1 0-1.8.8-1.8 1.8v6.8c.1 1.1.9 1.8 1.8 1.8zm1.8-6.7h21.7v3.3H30.6v-3.3zM28.6 66.3h8.2c1 0 1.8-.8 1.8-1.8v-8.2c0-1-.8-1.8-1.8-1.8h-8.2c-1 0-1.8.8-1.8 1.8v8.2c.1 1 .9 1.8 1.8 1.8zm1.8-8.2h4.7v4.7h-4.7v-4.7zM54 54.6h-8.2c-1 0-1.8.8-1.8 1.8v8.2c0 1 .8 1.8 1.8 1.8H54c1 0 1.8-.8 1.8-1.8v-8.2c0-1-.8-1.8-1.8-1.8zm-1.7 8.2h-4.7v-4.7h4.7v4.7zM36.9 81.4c1 0 1.8-.8 1.8-1.8v-8.2c0-1-.8-1.8-1.8-1.8h-8.2c-1 0-1.8.8-1.8 1.8v8.2c0 1 .8 1.8 1.8 1.8h8.2zm-6.5-8.2h4.7v4.7h-4.7v-4.7zM54 69.7h-8.2c-1 0-1.8.8-1.8 1.8v8.2c0 1 .8 1.8 1.8 1.8H54c1 0 1.8-.8 1.8-1.8v-8.2c0-1-.8-1.8-1.8-1.8zm-1.7 8.2h-4.7v-4.7h4.7v4.7z"/>
  <path fill="#fff" d="M106.2 24.4h8.8c1 0 1.8-.8 1.8-1.8V13c0-1-.8-1.8-1.8-1.8H13c-1.3 0-1.8.7-1.8 1.8v9.7c0 1 .8 1.8 1.8 1.8h63v39.9l-3.8 2.5c-.5.3-.8.9-.8 1.5v9.1c0 1 .8 1.8 1.8 1.8h9.3c1 0 1.8-.8 1.8-1.8v-9.1c0-.6-.3-1.1-.8-1.5l-3.8-2.5v-40H93v88.8h-7v-5c0-1-.8-1.8-1.8-1.8h-6v-3.3h6c1 0 1.8-.8 1.8-1.8v-6.8c0-1-.8-1.8-1.8-1.8h-6v-5c0-1-.8-1.8-1.8-1.8H62.6V34.7c0-1-.8-1.8-1.8-1.8H22c-1 0-1.8.8-1.8 1.8v78.6H13c-1 0-1.8.8-1.8 1.8s.8 1.8 1.8 1.8h102c1 0 1.8-.8 1.8-1.8s-.8-1.8-1.8-1.8h-8.8V24.4zM80.6 75.6h-5.8v-6.4l2.9-1.9 2.9 1.9v6.4zM32.3 15.5l5.4 5.4H26.9l5.4-5.4zm-9.6 4.7-5.4-5.4h10.9l-5.5 5.4zm13.9-5.4h10.9L42 20.2l-5.4-5.4zm15.1.7 5.4 5.4H46.2l5.5-5.4zm4.2-.7h10.9l-5.4 5.4-5.5-5.4zm15.1.7 5.4 5.4H65.6l5.4-5.4zm4.2-.7h10.9l-5.4 5.4-5.5-5.4zm15.9 0H93V21h-8.1l6.2-6.2zm5.4 0h6.2V21h-6.2v-6.2zm0 23V26.9l5.4 5.4-5.4 5.5zm6.2-1.2v10.9L97.2 42l5.5-5.4zm-.8 15.1-5.4 5.4V46.2l5.4 5.5zm.8 4.2v10.9l-5.4-5.4 5.4-5.5zm-.8 15.1-5.4 5.4V65.6l5.4 5.4zm-4.7 9.7 5.4-5.4v10.9l-5.4-5.5zm4.7 9.6-5.4 5.4V84.9l5.4 5.4zm.8-62.2L99 24.4h3.7v3.7zm10.6-7.2h-7.1v-6.2h7.1v6.2zm-98.5-3.7 3.7 3.7h-3.7v-3.7zm59.9 89.3H62.6v-3.3h12.1v3.3zm-7.8-6.8h-4.3v-3.3h4.3v3.3zM62.6 110h4.3v3.3h-4.3V110zm19.9-10.3H70.4v-3.3h12.1v3.3zm-7.8-10.1v3.3H62.6v-3.3h12.1zM23.8 36.4h35.4v76.8h-7.4V90.1c0-1-.8-1.8-1.8-1.8H32.9c-1 0-1.8.8-1.8 1.8v23.2h-7.4l.1-76.9zm24.4 76.9H34.7V91.8h13.6v21.5zm22.2 0V110h12.1v3.3H70.4zm26.1 0v-12.5l6.2-6.2v18.7h-6.2z"/>
</svg>
