<svg xmlns="http://www.w3.org/2000/svg" width="128" height="128" xml:space="preserve">
  <path fill="#fff" d="M114.813 126.21H56.748V79.246H27.859v46.964H13.188V66.261h4v55.949h6.671V75.246h36.889v46.964h50.065V66.261h4zM27.859 41.666h-4v-22.33h17.473v7.937h-4v-3.937h-9.473z"/>
  <path fill="#fff" d="M97.236 78.624v22.587H71.859V78.624h25.377m3.944-3.942H67.916v30.473h33.264V74.682z"/>
  <path fill="#fff" d="M8.204 77.722-.09 65.771 63.997.946l64.094 64.824-8.3 11.95-55.794-56.43L8.204 77.722zM63.997 15.6l55.255 55.886 3.657-5.267L63.997 6.636 5.09 66.22l3.654 5.266L63.997 15.6zM46.393 102.639h6.773v4h-6.773zM65.539 100.275h38.018v4H65.539z"/>
</svg>
