<svg xmlns:dc="http://purl.org/dc/elements/1.1/"
     xmlns:cc="http://creativecommons.org/ns#"
     xmlns:rdf="http://www.w3.org/1999/02/22-rdf-syntax-ns#"
     xmlns:svg="http://www.w3.org/2000/svg"
     xmlns="http://www.w3.org/2000/svg"
     width="100%"
     height="100%"
     viewBox="0 0 64 64"
     version="1.1"
     xml:space="preserve"
     style="fill-rule:evenodd;clip-rule:evenodd;stroke-linecap:round;stroke-linejoin:round;stroke-miterlimit:2;"
     id="svg15">
  <metadata id="metadata21">
    <rdf:RDF>
      <cc:Work rdf:about="">
        <dc:format>image/svg+xml</dc:format>
        <dc:type rdf:resource="http://purl.org/dc/dcmitype/StillImage" />
      </cc:Work>
    </rdf:RDF>
  </metadata>
  <defs id="defs19" />
  <path d="M35.737,23.163l-2.338,2.338l11.69,11.69l2.338,-2.338l-11.69,-11.69Z"
        style="fill:none;stroke:#ffffff;stroke-width:2px;"
        id="path3" />
  <path d="M54.053,39.92c0.516,0.516 0.806,1.217 0.806,1.947c0,0.731 -0.29,1.431 -0.806,1.948c-0.001,0 -0.002,0.001 -0.002,0.002c-0.517,0.516 -1.217,0.806 -1.948,0.806c-0.73,0 -1.431,-0.29 -1.947,-0.806c-2.308,-2.309 -5.846,-5.846 -5.846,-5.846l3.897,-3.897c0,0 3.537,3.538 5.846,5.846Z"
        style="fill:none;stroke:#ffffff;stroke-width:2px;"
        id="path5" />
  <path d="M36.727,10.125c-0.469,-0.469 -1.106,-0.733 -1.769,-0.733c-0.664,0 -1.3,0.264 -1.77,0.733c-3.073,3.074 -9.364,9.364 -12.437,12.438c-0.47,0.469 -0.733,1.105 -0.733,1.769c0,0.664 0.263,1.3 0.733,1.77c1.272,1.272 2.982,2.981 4.254,4.254c0.469,0.469 1.106,0.733 1.77,0.733c0.663,0 1.3,-0.264 1.769,-0.733c3.074,-3.074 9.364,-9.364 12.438,-12.437c0.469,-0.47 0.733,-1.106 0.733,-1.77c0,-0.664 -0.264,-1.3 -0.733,-1.769c-1.273,-1.273 -2.982,-2.982 -4.255,-4.255Z"
        style="fill:none;stroke:#ffffff;stroke-width:2px;"
        id="path7" />
  <path d="M35.737,18.487c0,0 1.119,-1.119 1.809,-1.809c0.14,-0.14 0.219,-0.33 0.219,-0.529c0,-0.198 -0.079,-0.389 -0.219,-0.529c-0.577,-0.577 -1.419,-1.419 -1.419,-1.419"
        style="fill:none;stroke:#ffffff;stroke-width:2px;"
        id="path9" />
  <path d="M29.604,53.439c-0.282,-0.281 -0.663,-0.439 -1.061,-0.439c-4.023,0 -15.02,0 -19.043,0c-0.398,0 -0.779,0.158 -1.061,0.439c-0.281,0.282 -0.439,0.663 -0.439,1.061c0,0.398 0.158,0.779 0.439,1.061c0.282,0.281 0.663,0.439 1.061,0.439c4.023,0 15.02,0 19.043,0c0.398,0 0.779,-0.158 1.061,-0.439c0.281,-0.282 0.439,-0.663 0.439,-1.061l-0.439,-1.061Z"
        style="fill:none;stroke:#ffffff;stroke-width:2px;"
        id="path11" />
  <path d="M25.777,50.031c0,-0.274 -0.109,-0.536 -0.302,-0.729c-0.193,-0.193 -0.455,-0.302 -0.729,-0.302c-2.555,0 -9.16,0 -11.715,0c-0.274,0 -0.536,0.109 -0.729,0.302c-0.193,0.193 -0.302,0.455 -0.302,0.729c0,1.185 0,2.969 0,2.969l13.777,0l0,-2.969Z"
        style="fill:none;stroke:#ffffff;stroke-width:2px;"
        id="path13" />
</svg>
