<svg xmlns="http://www.w3.org/2000/svg" xmlns:xlink="http://www.w3.org/1999/xlink" version="1.1" id="Шар_1" x="0px" y="0px" style="enable-background:new 0 0 595.28 841.89;" xml:space="preserve" viewBox="14 278.89 566.88 283.44">
<style type="text/css">
	.st0{fill:#FEFEFE;}
	.st1{fill:#C29D3E;}
	.st2{fill:#FCFBFA;}
</style>
<g>
	<g>
		<path class="st0" d="M297.32,562.31c-94.07,0-188.15,0-282.22,0.02c-0.9,0-1.1-0.2-1.1-1.1c0.02-93.75,0.02-187.49,0-281.24    c0-0.9,0.2-1.1,1.1-1.1c188.23,0.02,376.45,0.02,564.68,0c0.9,0,1.1,0.2,1.1,1.1c-0.02,93.75-0.02,187.49,0,281.24    c0,0.9-0.2,1.1-1.1,1.1C485.63,562.31,391.47,562.31,297.32,562.31z M170.13,396.41c2.21,0,3.73,0.03,5.25-0.01    c0.74-0.02,1.13,0.22,1.41,0.96c1.08,2.8,2.97,4.9,5.8,6.04c0.63,0.26,0.77,0.59,0.64,1.28c-1.92,10.03-3.8,20.06-5.69,30.09    c-0.92,4.86-1.86,9.72-2.75,14.59c-0.17,0.93-0.55,1.31-1.51,1.23c-0.95-0.07-1.92,0-2.88-0.02c-0.64-0.02-0.94,0.21-0.97,0.89    c-0.36,7.89,3.45,14.27,10.2,17.36c11.12,5.09,23.88-3.16,24.12-15.44c0.05-2.8,0.03-2.8-2.83-2.8c-0.32,0-0.64-0.04-0.96,0.01    c-1.01,0.14-1.39-0.32-1.57-1.29c-1.36-7.45-2.75-14.89-4.17-22.33c-1.37-7.24-2.75-14.49-4.21-21.72    c-0.22-1.12,0.03-1.58,1.03-2.07c4.51-2.22,6.81-6.86,5.82-11.47c-0.94-4.39-4.8-7.99-8.97-8.36c-4.99-0.45-9.3,2.1-11.09,6.61    c-0.31,0.8-0.7,1.1-1.57,1.08c-2.2-0.06-4.4-0.05-6.6-0.01c-0.8,0.01-1.45-0.19-2.08-0.7c-2.11-1.72-4.3-3.32-6.58-4.8    c-6.13-3.97-12.6-7.21-19.52-9.59c-5.79-1.99-11.77-3.24-17.71-4.65c-1.46-0.34-2.86-0.74-4.45-0.28    c-2.91,0.84-5.89,1.46-8.85,2.13c-13.34,3.02-25.41,8.7-36.08,17.28c-0.53,0.43-1.07,0.62-1.75,0.61    c-2.24-0.03-4.48-0.06-6.72,0.01c-0.97,0.03-1.39-0.31-1.73-1.2c-1.75-4.49-6.54-7.2-11.28-6.47c-4.36,0.67-8.24,4.49-8.82,8.69    c-0.66,4.74,1.86,9.41,6.16,11.26c0.87,0.38,1.07,0.74,0.88,1.69c-1.37,6.92-2.66,13.86-3.98,20.79    c-1.51,7.95-3.02,15.9-4.51,23.85c-0.13,0.68-0.44,0.96-1.12,0.95c-1.12-0.03-2.24-0.01-3.36-0.01c-0.39,0-0.86-0.07-0.84,0.55    c0.04,1.75-0.2,3.53,0.16,5.26c1.85,8.8,9.3,14.43,18.31,13.87c8.22-0.52,15.43-8.01,15.6-16.22c0.07-3.46,0.07-3.5-3.37-3.43    c-1.09,0.02-1.52-0.31-1.72-1.4c-1.49-8.08-3.04-16.15-4.57-24.23c-1.27-6.71-2.53-13.41-3.81-20.12    c-0.13-0.69-0.1-1.17,0.71-1.51c2.76-1.15,4.64-3.22,5.7-5.99c0.28-0.74,0.67-0.96,1.41-0.95c2.88,0.03,5.76-0.02,8.63,0.03    c0.87,0.01,1.51-0.27,2.16-0.81c7.67-6.38,16.21-11.19,25.64-14.46c5.79-2.01,11.78-3.2,17.7-4.71c0.8-0.2,1.55-0.2,2.35,0    c4.22,1.06,8.47,2.02,12.67,3.16c10.06,2.73,19.31,7.2,27.53,13.62C164.27,395.45,167,397.37,170.13,396.41z M117.39,447.64    c0,7.87,0,15.74,0,23.61c0,11.79,0,23.57,0.01,35.36c0,0.71-0.13,1.43,0.22,2.12c0.61,1.17,1.83,1.77,3.1,1.49    c1.11-0.24,2-1.39,2-2.65c0.01-5.35,0.01-10.7,0.01-16.06c0-16.54,0-33.08,0-49.62c0-17.9,0-35.8,0-53.7c0-0.28,0.01-0.56,0-0.84    c-0.01-0.68,0.23-0.92,0.95-0.72c1.46,0.41,2.93,0.8,4.42,1.07c1.19,0.22,1.55,0.74,1.55,1.99c-0.04,33.8-0.03,67.61-0.03,101.41    c0,0.56-0.01,1.12,0.03,1.68c0.1,1.36,1.1,2.42,2.41,2.57c1.17,0.13,2.34-0.63,2.8-1.83c0.24-0.62,0.2-1.26,0.2-1.89    c0-12.07,0-24.13,0-36.2c0-9.51,0-19.02,0-28.53c0-11.99,0-23.97-0.02-35.96c0-0.87,0.17-1.15,1.09-0.81    c6.08,2.27,11.62,5.47,16.79,9.37c0.71,0.54,0.97,1.13,0.96,2.02c-0.05,4.08-0.03,8.15-0.01,12.23c0.01,1.57,1.07,2.76,2.49,2.89    c1.3,0.11,2.56-0.94,2.83-2.41c0.08-0.43,0.09-0.87,0.09-1.31c0.01-4.28-0.09-8.55,0.05-12.82c0.06-1.77-0.57-2.83-1.93-3.88    c-5.66-4.37-11.7-8.05-18.37-10.69c-6.02-2.37-12.33-3.61-18.57-5.13c-0.37-0.09-0.71-0.01-1.06,0.07    c-2.91,0.69-5.83,1.36-8.75,2.05c-10.72,2.55-20.29,7.42-28.79,14.4c-0.46,0.38-0.93,0.72-0.93,1.44c0.02,5.23,0,10.47,0.02,15.7    c0.01,1.21,0.71,2.01,1.83,2.4c1.85,0.64,3.52-0.81,3.54-3.16c0.04-3.92,0.06-7.83-0.02-11.75c-0.02-1.01,0.29-1.63,1.06-2.21    c4.98-3.74,10.32-6.84,16.16-9.03c1.52-0.57,1.52-0.55,1.52,1.09c0,33.36,0,66.73,0,100.09c0,0.72-0.04,1.44,0.26,2.12    c0.51,1.17,1.73,1.91,2.87,1.71c1.3-0.23,2.2-1.23,2.29-2.56c0.02-0.28,0.01-0.56,0.01-0.84c0-27.33,0-54.66,0-81.99    c0-6.83,0.02-13.67-0.02-20.5c-0.01-1.04,0.3-1.5,1.33-1.69c1.33-0.24,2.64-0.62,3.95-0.95c1.65-0.41,1.65-0.42,1.65,1.25    C117.39,407.92,117.39,427.78,117.39,447.64z M360.74,427.09c46.13,0,92.26,0,138.4,0c0.36,0,0.72,0,1.08,0    c0.2,0,0.47-0.01,0.48-0.24c0.03-0.88,0.18-1.8-0.04-2.62c-0.16-0.58-0.99-0.25-1.51-0.25c-92.22-0.01-184.45-0.01-276.67-0.01    c-0.36,0-0.72,0-1.08,0c-0.2,0-0.51-0.01-0.52,0.19c-0.05,0.87-0.19,1.79,0.01,2.62c0.16,0.67,0.97,0.3,1.47,0.3    C268.47,427.09,314.61,427.09,360.74,427.09z M110.19,340.68c0.01,5.61,4.34,10.01,9.86,10.01c5.39,0,9.96-4.49,9.95-9.74    c-0.01-6.43-5.55-10.22-9.99-10.05C114.5,331.1,110.18,335.23,110.19,340.68z M119.96,367.56c5.16,0,10.31,0.01,15.47,0    c1.77,0,2.95-1.03,3.02-2.57c0.08-1.7-1.06-2.87-2.94-2.87c-10.31-0.02-20.62-0.01-30.94,0c-0.28,0-0.57,0.01-0.83,0.09    c-0.98,0.29-1.7,0.86-2,1.88c-0.29,1.02-0.03,1.91,0.69,2.64c0.65,0.66,1.48,0.85,2.41,0.85    C109.89,367.55,114.93,367.56,119.96,367.56z M231.97,453.94c5.99,0,10.13-4.11,10.15-10.05c0.02-6.24-4.02-10.33-10.22-10.33    c-5.24,0-9.53,4.61-9.53,10.26C222.36,449.79,226.29,453.94,231.97,453.94z M120.02,358.96c2.92,0,5.83,0.01,8.75,0    c1.92-0.01,3.16-1.07,3.18-2.7c0.02-1.32-1.3-2.8-3.14-2.77c-5.83,0.07-11.67,0.02-17.5,0.03c-1.88,0-3.08,1.12-3.08,2.78    c0,1.58,1.21,2.65,3.05,2.66C114.19,358.97,117.1,358.96,120.02,358.96z M417.82,447.08c0,0.52,0.01,1.04,0,1.56    c-0.02,1.15,0.39,2.73-0.2,3.35c-0.75,0.78-2.34,0.16-3.56,0.27c-0.71,0.07-0.87-0.25-0.86-0.9c0.03-2.64,0.04-5.27,0-7.91    c-0.02-0.99,0.1-1.76,1.29-1.87c0.26-0.03,0.59-0.13,0.54-0.51c-0.05-0.41-0.4-0.32-0.66-0.32c-1.56-0.01-3.12-0.01-4.68,0    c-0.29,0-0.7-0.13-0.73,0.37c-0.02,0.37,0.33,0.45,0.59,0.48c1,0.12,1.18,0.78,1.17,1.62c-0.01,1.84,0.03,3.68-0.02,5.51    c-0.03,1.14,0.53,2.7-0.24,3.31c-0.72,0.57-2.22,0.13-3.37,0.22c-0.83,0.06-1.1-0.2-1.08-1.06c0.05-2.64,0.04-5.27,0.01-7.91    c-0.01-0.91,0.16-1.58,1.21-1.71c0.27-0.03,0.59-0.15,0.52-0.52c-0.06-0.38-0.4-0.32-0.67-0.32c-1.56,0-3.12-0.01-4.68,0    c-0.29,0-0.72-0.15-0.81,0.28c-0.11,0.52,0.36,0.58,0.69,0.62c1.06,0.16,1.32,0.78,1.3,1.78c-0.05,2.52-0.05,5.03,0,7.55    c0.02,0.95-0.26,1.54-1.22,1.73c-0.38,0.08-0.9,0.09-0.77,0.67c0.12,0.51,0.59,0.26,0.92,0.25c6.31-0.27,12.62-0.28,18.93,0    c0.31,0.01,0.78,0.28,0.88-0.28c0.09-0.49-0.33-0.56-0.69-0.63c-0.94-0.17-1.28-0.71-1.26-1.69c0.06-2.52,0.06-5.04,0-7.55    c-0.03-1.05,0.23-1.7,1.35-1.84c0.31-0.04,0.66-0.16,0.6-0.59c-0.06-0.41-0.42-0.3-0.67-0.3c-1.6-0.01-3.2-0.01-4.8,0    c-0.26,0-0.62-0.11-0.7,0.27c-0.1,0.45,0.29,0.55,0.59,0.59c0.93,0.12,1.13,0.69,1.1,1.52    C417.79,444.44,417.82,445.76,417.82,447.08z M350.98,442.73c0-0.52-0.02-0.94,0-1.36c0.03-0.59-0.15-0.93-0.81-0.84    c-1.1,0.16-2.21,0.3-3.32,0.45c-0.2,0.03-0.42,0.04-0.44,0.3c-0.02,0.22,0.1,0.41,0.33,0.42c1.77,0.12,1.63,1.43,1.63,2.62    c0.01,4.51-0.01,9.02,0.02,13.53c0.01,1.04-0.04,1.94-1.34,2.13c-0.3,0.04-0.52,0.27-0.46,0.59c0.07,0.39,0.41,0.33,0.67,0.29    c2.07-0.32,4.14-0.2,6.21,0c0.26,0.02,0.61,0.12,0.65-0.3c0.04-0.41-0.25-0.54-0.6-0.6c-0.35-0.05-0.71-0.12-1.06-0.16    c-1.17-0.12-1.65-0.74-1.57-1.93c0.07-1.15,0.06-2.32,0-3.47c-0.05-0.94,0.1-1.27,1.16-0.88c2.41,0.9,4.63,0.46,6.55-1.29    c2.48-2.28,3.05-6.12,1.36-9.11c-1.6-2.83-5.05-3.48-7.58-1.43C351.96,442.01,351.66,442.52,350.98,442.73z M425.17,405.84    c0.17,0.02,0.34,0.04,0.52,0.06c0,2.11-0.06,4.22,0.03,6.33c0.04,1.01-0.04,1.75-1.21,1.9c-0.36,0.04-0.65,0.24-0.6,0.61    c0.06,0.58,0.55,0.32,0.86,0.32c1.48,0.01,2.95,0.02,4.43-0.01c0.34-0.01,0.88,0.33,0.99-0.28c0.09-0.52-0.4-0.62-0.79-0.69    c-0.85-0.16-1.13-0.64-1.15-1.51c-0.07-2.43-0.22-4.86-0.4-7.28c-0.08-1.13-0.08-2.1,1.4-2.22c0.29-0.02,0.52-0.23,0.5-0.57    c-0.02-0.45-0.38-0.3-0.63-0.32c-3.62-0.24-3.62-0.24-5.13,2.98c-0.2,0.43-0.4,0.87-0.6,1.3c-0.76,1.61-1.52,3.23-2.37,5.03    c-0.96-2.13-1.82-4.06-2.69-5.98c-1.53-3.38-1.53-3.38-5.22-3.32c-0.29,0-0.8-0.27-0.85,0.32c-0.04,0.47,0.37,0.56,0.73,0.62    c0.97,0.17,1.25,0.72,1.18,1.7c-0.19,2.42-0.29,4.86-0.38,7.29c-0.04,1.03-0.11,1.93-1.43,2.04c-0.35,0.03-0.62,0.27-0.56,0.64    c0.08,0.5,0.5,0.27,0.77,0.27c1.2,0.02,2.39,0.01,3.59,0c0.29,0,0.71,0.21,0.81-0.23c0.1-0.43-0.25-0.59-0.63-0.72    c-0.49-0.17-1.23-0.14-1.2-0.92c0.08-2.52,0.2-5.04,0.31-7.65c0.51,0.3,0.56,0.72,0.72,1.07c1.22,2.65,2.41,5.3,3.63,7.94    c0.12,0.27,0.16,0.69,0.56,0.68c0.39-0.01,0.64-0.29,0.8-0.64c0.1-0.22,0.19-0.44,0.29-0.66    C422.68,411.24,423.93,408.54,425.17,405.84z M230.34,415.09C230.34,415.08,230.34,415.08,230.34,415.09    c0.96-0.01,1.91,0.01,2.87-0.02c0.35-0.01,0.87,0.28,0.97-0.35c0.09-0.6-0.39-0.73-0.84-0.8c-1.03-0.15-1.57-0.78-1.93-1.72    c-0.81-2.12-1.67-4.22-2.52-6.33c-1.34-3.32-2.69-6.65-4.04-9.97c-0.14-0.35-0.19-0.85-0.72-0.82c-0.48,0.03-0.6,0.46-0.75,0.83    c-0.1,0.26-0.22,0.51-0.33,0.77c-2,4.82-4.02,9.63-6.01,14.46c-0.55,1.32-0.89,2.8-2.74,2.88c-0.29,0.01-0.45,0.29-0.45,0.62    c0.01,0.3,0.17,0.44,0.45,0.42c1.76-0.12,3.51-0.06,5.26,0.01c0.2,0.01,0.41-0.02,0.46-0.27c0.05-0.25,0.02-0.5-0.23-0.62    c-0.25-0.12-0.52-0.21-0.79-0.26c-1.08-0.18-1.3-0.73-0.83-1.69c0.33-0.68,0.57-1.4,0.86-2.1c0.92-2.28,0.92-2.3,3.33-2.27    c1.39,0.02,3.09-0.55,4.07,0.23c0.92,0.73,1.11,2.39,1.61,3.65c0.64,1.62,0.64,1.64-0.93,2.25c-0.4,0.15-0.63,0.35-0.54,0.78    c0.1,0.48,0.5,0.29,0.78,0.29C228.35,415.1,229.35,415.09,230.34,415.09z M242.81,402.18c-1.6,0-3.19-0.01-4.79,0.01    c-0.31,0-0.79-0.24-0.9,0.28c-0.1,0.46,0.31,0.58,0.67,0.67c0.62,0.16,0.94,0.54,0.92,1.2c-0.05,2.16-0.13,4.31-0.75,6.4    c-0.42,1.43-1.13,2.64-2.63,3.19c-0.41,0.15-0.65,0.47-0.61,0.92c0.13,1.72,0.09,3.43-0.09,5.14c-0.06,0.53,0.27,0.7,0.69,0.79    c0.53,0.11,0.56-0.27,0.65-0.63c0.25-1.05,0.39-2.12,0.83-3.11c0.59-1.33,1.49-2.13,3.04-2.04c0.84,0.05,1.68,0.01,2.52,0.01    c2.76,0,3.58,0.63,4.26,3.31c0.12,0.46,0.18,0.94,0.31,1.4c0.12,0.44-0.14,1.19,0.74,1.06c0.76-0.11,0.69-0.74,0.7-1.3    c0.02-1.47-0.11-2.96,0.2-4.42c0.13-0.61-0.05-1.05-0.72-1.1c-1.16-0.09-1.4-0.78-1.38-1.81c0.05-2.31,0.06-4.63,0-6.95    c-0.03-1.13,0.12-1.98,1.46-2.12c0.36-0.04,0.6-0.29,0.52-0.67c-0.09-0.41-0.46-0.22-0.7-0.22    C246.08,402.17,244.45,402.18,242.81,402.18z M392.66,444.94c-1.4-2.95-2.7-5.72-4.04-8.48c-0.45-0.92-0.32-1.43,0.77-1.54    c0.44-0.05,0.8-0.27,0.69-0.78c-0.12-0.53-0.58-0.32-0.9-0.28c-1.83,0.2-3.66,0.23-5.5,0.01c-0.32-0.04-0.85-0.34-0.95,0.33    c-0.08,0.54,0.34,0.68,0.74,0.74c0.93,0.15,1.44,0.74,1.83,1.54c1.82,3.73,3.64,7.45,5.52,11.16c0.36,0.72,0.28,1.25-0.15,1.87    c-0.69,1-1.62,1.22-2.73,0.93c-0.57-0.15-1.13-0.23-1.45,0.42c-0.4,0.79-0.84,1.66-0.38,2.5c0.37,0.69,1.15,0.33,1.75,0.19    c2.22-0.51,3.58-2.02,4.45-4.01c1.73-3.95,3.41-7.91,5.12-11.86c0.57-1.31,0.97-2.77,2.81-2.84c0.38-0.01,0.51-0.35,0.45-0.71    c-0.05-0.33-0.32-0.33-0.55-0.29c-1.71,0.26-3.42,0.25-5.13,0c-0.23-0.03-0.5-0.04-0.53,0.3c-0.03,0.29,0,0.57,0.34,0.67    c0.3,0.09,0.62,0.15,0.92,0.26c0.52,0.19,0.82,0.52,0.57,1.1C395.12,439.03,393.93,441.89,392.66,444.94z M339.18,440.75    c-1.64,0-3.28-0.01-4.91,0.01c-0.31,0-0.8-0.2-0.86,0.35c-0.04,0.42,0.36,0.49,0.66,0.55c0.79,0.15,1,0.64,0.99,1.38    c-0.02,1.6-0.05,3.2-0.37,4.77c-0.42,2.02-0.9,4.02-3.23,4.78c-0.44,0.14-0.38,0.55-0.36,0.91c0.09,1.6,0.12,3.19-0.1,4.78    c-0.07,0.47-0.04,0.88,0.6,0.93c0.55,0.04,0.66-0.28,0.73-0.72c0.16-0.94,0.34-1.88,0.7-2.78c0.66-1.65,1.51-2.24,3.27-2.25    c1.08-0.01,2.16,0.04,3.24-0.01c1.43-0.06,2.32,0.65,2.92,1.87c0.48,0.98,0.65,2.05,0.86,3.1c0.09,0.46,0.13,0.86,0.77,0.79    c0.65-0.07,0.61-0.53,0.59-0.97c-0.07-1.56-0.01-3.12,0.17-4.66c0.08-0.72-0.13-1.04-0.85-1.1c-0.87-0.08-1.19-0.61-1.18-1.48    c0.03-2.47,0.05-4.95-0.01-7.43c-0.02-1.05,0.13-1.82,1.35-1.94c0.3-0.03,0.69-0.16,0.6-0.59c-0.09-0.46-0.51-0.29-0.79-0.3    C342.38,440.74,340.78,440.75,339.18,440.75z M474.31,415.09c0,0,0-0.01,0-0.01c0.8,0,1.6,0.02,2.39-0.01    c0.31-0.01,0.8,0.26,0.84-0.33c0.03-0.44-0.34-0.58-0.73-0.64c-1.03-0.17-1.28-0.81-1.25-1.8c0.07-2.43,0.07-4.87,0-7.3    c-0.03-1.03,0.21-1.71,1.31-1.88c0.33-0.05,0.66-0.17,0.62-0.58c-0.04-0.5-0.46-0.34-0.75-0.34c-1.64-0.01-3.27-0.01-4.91,0    c-0.25,0-0.63-0.16-0.7,0.24c-0.07,0.36,0.18,0.62,0.54,0.66c1.21,0.16,1.35,0.95,1.33,1.99c-0.04,2.83-0.01,2.83-2.89,2.83    c-3.08,0-3.05,0-3.07-3.12c-0.01-0.89,0.2-1.47,1.14-1.64c0.37-0.07,0.76-0.2,0.67-0.67c-0.09-0.45-0.52-0.27-0.81-0.27    c-1.56-0.01-3.11-0.02-4.67,0c-0.29,0-0.72-0.19-0.81,0.26c-0.09,0.45,0.29,0.6,0.67,0.67c1.02,0.18,1.31,0.8,1.29,1.8    c-0.06,2.43-0.06,4.87,0,7.3c0.03,1.03-0.21,1.72-1.31,1.89c-0.39,0.06-0.74,0.23-0.65,0.68c0.08,0.46,0.5,0.28,0.79,0.28    c1.56,0.01,3.11,0.01,4.67-0.01c0.31,0,0.8,0.26,0.88-0.29c0.06-0.42-0.3-0.57-0.68-0.69c-0.51-0.16-1.15-0.25-1.15-1.01    c0.01-1.27-0.33-2.75,0.2-3.75c0.38-0.7,2-0.14,3.06-0.23c0.08-0.01,0.16,0,0.24,0c2.41,0,2.41,0,2.4,2.45    c0,1.12,0.34,2.43-1.42,2.62c-0.33,0.03-0.47,0.34-0.44,0.63c0.04,0.41,0.41,0.28,0.66,0.28    C472.64,415.09,473.47,415.09,474.31,415.09z M326.55,440.75c-0.84,0-1.68-0.01-2.52,0c-0.26,0-0.62-0.1-0.7,0.28    c-0.09,0.43,0.27,0.57,0.58,0.61c1.16,0.14,1.32,0.87,1.3,1.87c-0.04,2.99-0.01,3-2.95,3c-3.03,0-3,0-3.03-3.05    c-0.01-0.97,0.19-1.64,1.26-1.8c0.31-0.05,0.66-0.18,0.58-0.61c-0.07-0.4-0.43-0.28-0.68-0.29c-1.64-0.01-3.28-0.01-4.91,0    c-0.29,0-0.71-0.14-0.75,0.35c-0.03,0.43,0.37,0.5,0.66,0.55c1.1,0.16,1.39,0.8,1.36,1.85c-0.06,2.43-0.06,4.87,0,7.3    c0.03,1.08-0.23,1.79-1.4,1.94c-0.34,0.04-0.66,0.16-0.63,0.57c0.04,0.5,0.45,0.37,0.74,0.33c1.63-0.24,3.26-0.26,4.89,0    c0.24,0.04,0.59,0.18,0.71-0.21c0.11-0.38-0.07-0.64-0.45-0.69c-1.27-0.17-1.45-1.01-1.37-2.08c0.06-0.75,0.04-1.52,0-2.27    c-0.03-0.63,0.13-0.95,0.85-0.93c1.44,0.04,2.88,0.04,4.31,0c0.65-0.02,0.83,0.24,0.8,0.84c-0.03,0.88-0.07,1.76,0.01,2.63    c0.09,1.01-0.25,1.61-1.27,1.79c-0.38,0.07-0.74,0.23-0.6,0.7c0.13,0.43,0.54,0.26,0.83,0.22c1.55-0.22,3.1-0.25,4.65-0.01    c0.29,0.04,0.78,0.29,0.88-0.27c0.09-0.49-0.32-0.57-0.69-0.63c-1.04-0.17-1.28-0.81-1.26-1.8c0.07-2.31,0.07-4.63,0-6.95    c-0.03-1.21,0-2.25,1.55-2.4c0.25-0.02,0.43-0.2,0.4-0.5c-0.05-0.43-0.39-0.32-0.64-0.33    C328.23,440.74,327.39,440.75,326.55,440.75z M439.37,402.18c-2.2,0-4.39-0.01-6.59,0.01c-0.31,0-0.8-0.25-0.9,0.28    c-0.09,0.46,0.32,0.58,0.69,0.65c1.03,0.19,1.29,0.83,1.26,1.82c-0.06,2.32-0.06,4.63,0,6.95c0.03,1.15-0.06,2.08-1.46,2.26    c-0.37,0.05-0.59,0.3-0.5,0.67c0.09,0.38,0.44,0.27,0.7,0.25c1.6-0.08,3.19-0.09,4.79-0.01c0.29,0.01,0.72,0.21,0.83-0.21    c0.13-0.5-0.28-0.69-0.7-0.76c-0.93-0.17-1.15-0.76-1.14-1.65c0.05-2.68,0.04-5.35,0-8.03c-0.01-0.75,0.17-1.09,1-1.04    c1.24,0.06,2.48,0.06,3.72,0c0.82-0.04,1.01,0.28,1,1.04c-0.04,2.64-0.05,5.27,0.01,7.91c0.02,0.97-0.17,1.65-1.24,1.81    c-0.35,0.05-0.62,0.24-0.58,0.63c0.06,0.49,0.47,0.32,0.76,0.32c1.6,0.01,3.19,0.01,4.79-0.01c0.31,0,0.8,0.25,0.84-0.34    c0.03-0.45-0.36-0.56-0.74-0.63c-1.02-0.18-1.31-0.79-1.28-1.8c0.06-2.43,0.07-4.87,0-7.31c-0.03-1.04,0.24-1.71,1.33-1.88    c0.39-0.06,0.78-0.22,0.69-0.65c-0.1-0.5-0.6-0.26-0.91-0.26C443.61,402.17,441.49,402.18,439.37,402.18z M491.72,409.18    c-0.92,0.4-1.54,0.91-2.06,1.57c-0.92,1.18-1.27,2.77-2.62,3.65c-0.24,0.16-0.33,0.55,0.19,0.69c1.67,0.45,3.03-0.16,3.81-1.73    c0.21-0.43,0.41-0.86,0.64-1.28c0.46-0.84,0.86-1.72,1.74-2.24c1.38-0.8,2.14-0.39,2.14,1.14c0,0.28-0.02,0.56,0,0.84    c0.08,1.13,0.1,2.21-1.45,2.36c-0.32,0.03-0.47,0.34-0.42,0.63c0.06,0.4,0.42,0.29,0.68,0.27c1.64-0.09,3.27-0.1,4.91-0.01    c0.29,0.02,0.72,0.21,0.82-0.22c0.12-0.5-0.28-0.68-0.72-0.75c-1.03-0.17-1.28-0.81-1.25-1.8c0.07-2.35,0.07-4.71,0-7.06    c-0.03-1.12,0.09-1.99,1.42-2.15c0.34-0.04,0.63-0.25,0.57-0.63c-0.06-0.39-0.43-0.27-0.69-0.27c-2.15,0.01-4.31,0.01-6.46,0.07    c-0.83,0.02-1.66,0.19-2.43,0.57c-1.32,0.64-2,1.68-1.93,3.15c0.06,1.44,0.85,2.35,2.17,2.86    C491.02,408.92,491.28,409.02,491.72,409.18z M258.56,408.14c0.79-0.63,1.63-0.93,2.01-1.74c0.89-1.87-0.31-3.63-2.73-3.99    c-2.34-0.35-4.7-0.06-7.05-0.22c-0.24-0.02-0.62-0.15-0.66,0.28c-0.03,0.38,0.24,0.58,0.59,0.62c1.2,0.13,1.39,0.88,1.36,1.94    c-0.06,2.35-0.06,4.7,0,7.06c0.02,1.06-0.07,1.92-1.37,2.05c-0.36,0.04-0.62,0.27-0.58,0.64c0.05,0.5,0.48,0.3,0.76,0.29    c1.79-0.01,3.59,0.01,5.38-0.08c1.38-0.07,2.79-0.13,4.05-0.87c1.21-0.71,1.62-1.78,1.53-3.13c-0.08-1.24-0.84-1.93-1.89-2.38    C259.57,408.45,259.15,408.34,258.56,408.14z M354.51,408.62c1.11-0.73,1.58-1.65,2.12-2.53c0.33-0.54,0.69-1.17,1.45-1.08    c1.03,0.12,1.33-0.55,1.53-1.31c0.13-0.48,0.34-1.13-0.23-1.41c-0.7-0.34-1.48-0.29-2.18,0.13c-0.53,0.32-0.89,0.8-1.13,1.36    c-0.27,0.62-0.49,1.26-0.76,1.88c-0.48,1.09-1.13,2.02-2.37,2.36c-1.2,0.33-1.4,0.2-1.41-1.01c0-0.64,0.05-1.28-0.01-1.92    c-0.11-1.05,0.12-1.82,1.31-2c0.34-0.05,0.65-0.23,0.58-0.63c-0.08-0.48-0.51-0.27-0.79-0.27c-1.6-0.02-3.19-0.02-4.79,0    c-0.29,0-0.72-0.19-0.81,0.25c-0.09,0.45,0.29,0.62,0.67,0.67c1.14,0.15,1.32,0.88,1.3,1.88c-0.05,2.32-0.06,4.63,0,6.95    c0.03,1.15-0.08,2.07-1.48,2.23c-0.35,0.04-0.59,0.31-0.49,0.68c0.1,0.37,0.46,0.24,0.71,0.22c1.68-0.09,3.35-0.09,5.03,0    c0.25,0.01,0.61,0.13,0.64-0.31c0.03-0.32-0.18-0.57-0.47-0.61c-1.5-0.21-1.5-1.26-1.42-2.4c0.04-0.52,0.06-1.04-0.01-1.56    c-0.1-0.82,0.31-0.94,0.98-0.86c1.74,0.2,2.46,1.36,2.92,2.89c0.86,2.85,0.13,2.81,3.79,2.83c0.04,0,0.08,0.01,0.12,0.01    c0.26-0.02,0.62,0.12,0.67-0.29c0.04-0.3-0.13-0.56-0.45-0.63c-0.76-0.16-0.94-0.77-1.16-1.38    C357.73,410.92,357.02,409.07,354.51,408.62z M286.44,408.6c0.98-0.84,1.58-1.77,2.13-2.74c0.29-0.5,0.66-0.94,1.32-0.86    c0.95,0.12,1.26-0.48,1.49-1.21c0.15-0.5,0.39-1.09-0.11-1.44c-0.62-0.45-1.38-0.32-2.06-0.04c-0.66,0.27-1.05,0.85-1.33,1.48    c-0.38,0.83-0.71,1.69-1.11,2.52c-0.48,1-1.29,1.61-2.39,1.81c-0.63,0.12-1.09,0.05-1.02-0.81c0.07-0.79,0.07-1.6,0-2.39    c-0.08-0.96,0.13-1.65,1.22-1.8c0.35-0.05,0.65-0.22,0.62-0.6c-0.03-0.52-0.47-0.31-0.75-0.32c-1.6-0.02-3.19-0.02-4.79,0    c-0.28,0-0.71-0.21-0.81,0.24c-0.09,0.45,0.27,0.61,0.65,0.68c1.02,0.18,1.3,0.78,1.27,1.79c-0.07,2.39-0.07,4.79,0,7.19    c0.03,1.11-0.17,1.89-1.41,2.04c-0.37,0.05-0.59,0.28-0.53,0.66c0.06,0.41,0.42,0.29,0.67,0.28c1.64-0.09,3.27-0.09,4.91,0    c0.29,0.01,0.71,0.18,0.78-0.29c0.05-0.36-0.2-0.6-0.57-0.65c-1.12-0.16-1.38-0.86-1.28-1.87c0.07-0.67,0.06-1.36,0-2.03    c-0.07-0.79,0.27-0.96,0.97-0.87c1.81,0.24,2.48,1.51,2.93,3.06c0.77,2.63,0.8,2.62,3.57,2.65c0.08,0,0.16,0.02,0.24,0.01    c0.25-0.03,0.6,0.16,0.7-0.24c0.08-0.32-0.1-0.59-0.39-0.65c-0.82-0.17-1.03-0.83-1.23-1.47    C289.54,410.83,288.68,409.16,286.44,408.6z M389.59,408.62c0.99-0.88,1.61-1.84,2.18-2.83c0.27-0.47,0.64-0.86,1.24-0.78    c1.01,0.13,1.32-0.53,1.55-1.3c0.15-0.51,0.35-1.12-0.2-1.41c-0.69-0.36-1.48-0.3-2.18,0.1c-0.58,0.33-0.93,0.87-1.19,1.46    c-0.36,0.8-0.67,1.62-1.05,2.41c-0.43,0.91-1.15,1.51-2.14,1.78c-0.84,0.23-1.4,0.16-1.28-0.96c0.07-0.67,0.06-1.36,0-2.03    c-0.09-1.03,0.07-1.83,1.3-1.97c0.35-0.04,0.61-0.29,0.53-0.66c-0.08-0.39-0.45-0.24-0.71-0.24c-1.64-0.01-3.27-0.01-4.91,0    c-0.27,0-0.7-0.2-0.73,0.33c-0.02,0.4,0.3,0.53,0.63,0.58c1.11,0.17,1.33,0.87,1.3,1.89c-0.07,2.27-0.06,4.55,0,6.83    c0.03,1.16,0.02,2.19-1.49,2.34c-0.32,0.03-0.48,0.28-0.45,0.6c0.04,0.44,0.39,0.32,0.64,0.31c1.68-0.09,3.35-0.09,5.03,0    c0.26,0.01,0.61,0.12,0.69-0.27c0.06-0.3-0.11-0.6-0.42-0.63c-1.6-0.14-1.45-1.27-1.41-2.37c0.02-0.56,0.05-1.12-0.01-1.68    c-0.07-0.77,0.33-0.86,0.94-0.78c1.75,0.2,2.5,1.38,2.92,2.91c0.8,2.94,0.4,2.77,3.82,2.81c0.04,0,0.08,0.01,0.12,0.01    c0.22-0.02,0.51,0.1,0.6-0.21c0.1-0.32-0.07-0.61-0.35-0.67c-0.87-0.19-1.06-0.89-1.29-1.57    C392.66,410.79,391.82,409.15,389.59,408.62z M456.67,413.31c0.98,1.92,2.62,2.56,4.23,1.76c0.25-0.12,0.54-0.22,0.48-0.59    c-0.03-0.23-0.2-0.3-0.41-0.36c-1.84-0.47-1.86-0.51-1.88-2.4c-0.02-2.15-0.01-4.31-0.09-6.46c-0.05-1.48-0.77-2.58-2.22-3.09    c-2.37-0.82-5.35-0.01-7.01,1.87c-0.35,0.4-0.61,0.84-0.65,1.38c-0.05,0.63,0.21,0.88,0.85,0.74c1.01-0.23,1.88-0.56,2.19-1.73    c0.22-0.83,0.77-1.35,1.73-1.37c1.51-0.03,2.29,0.65,2.51,2.27c0.23,1.75,0.07,1.96-1.8,2.33c-0.23,0.05-0.47,0.09-0.7,0.15    c-1.62,0.42-3.27,0.79-4.46,2.12c-1.71,1.91-0.89,4.68,1.6,5.22C453.19,415.64,455.16,415.32,456.67,413.31z M301.5,413.39    c1.36,1.91,2.52,2.38,4.19,1.72c0.29-0.11,0.68-0.16,0.61-0.59c-0.07-0.43-0.42-0.41-0.75-0.37c-1.07,0.12-1.4-0.57-1.51-1.44    c-0.05-0.43-0.03-0.88-0.03-1.32c-0.02-1.96,0.01-3.91-0.06-5.87c-0.06-1.48-0.61-2.73-2.13-3.3c-2.3-0.86-5.4-0.1-7.06,1.73    c-0.33,0.36-0.6,0.75-0.7,1.23c-0.15,0.74,0,1.17,0.92,0.96c1-0.22,1.79-0.6,2.09-1.69c0.18-0.62,0.51-1.17,1.24-1.34    c1.52-0.36,2.58,0.33,2.97,1.97c0.43,1.83,0.18,2.17-1.73,2.59c-0.97,0.21-1.94,0.47-2.88,0.78c-0.95,0.32-1.81,0.83-2.45,1.65    c-1.52,1.96-0.68,4.51,1.73,5.04C298.1,415.64,300.08,415.33,301.5,413.39z M369.73,413.34c1.16,1.89,2.43,2.43,4.11,1.8    c0.32-0.12,0.77-0.19,0.67-0.68c-0.09-0.43-0.48-0.34-0.79-0.31c-0.86,0.08-1.26-0.41-1.39-1.16c-0.1-0.55-0.15-1.11-0.15-1.66    c-0.02-1.95,0.03-3.91-0.02-5.86c-0.06-2.01-1.12-3.19-3.09-3.49c-0.67-0.1-1.37-0.15-2.03-0.05c-1.83,0.27-3.44,1-4.5,2.62    c-0.29,0.45-0.45,1.02-0.13,1.47c0.31,0.44,0.8,0.06,1.21-0.01c0.88-0.15,1.38-0.66,1.65-1.52c0.23-0.75,0.69-1.33,1.59-1.42    c1.54-0.15,2.45,0.57,2.7,2.2c0.27,1.76,0.07,1.99-1.85,2.41c-0.93,0.2-1.86,0.46-2.76,0.76c-0.79,0.27-1.54,0.66-2.15,1.27    c-0.99,1-1.29,2.18-0.92,3.52c0.36,1.29,1.38,1.83,2.58,2.01C366.46,415.54,368.35,415.29,369.73,413.34z M445.76,447.18    c1.02-0.77,1.58-1.73,2.14-2.69c0.33-0.57,0.71-1.14,1.45-1.08c1.03,0.08,1.31-0.59,1.48-1.37c0.11-0.48,0.4-1.08-0.26-1.38    c-0.73-0.33-1.49-0.24-2.17,0.22c-0.55,0.37-0.88,0.92-1.14,1.51c-0.35,0.8-0.64,1.64-1.03,2.42c-0.53,1.07-1.39,1.73-2.59,1.9    c-0.59,0.08-0.9-0.07-0.87-0.74c0.04-0.96,0.05-1.92,0-2.88c-0.06-0.9,0.26-1.46,1.17-1.63c0.36-0.07,0.77-0.16,0.65-0.66    c-0.11-0.47-0.53-0.25-0.8-0.22c-1.55,0.21-3.1,0.23-4.66,0c-0.31-0.04-0.8-0.29-0.87,0.28c-0.06,0.48,0.41,0.53,0.75,0.59    c0.95,0.18,1.29,0.72,1.27,1.69c-0.05,2.52-0.07,5.03,0,7.55c0.03,1.12-0.21,1.88-1.43,2.04c-0.35,0.05-0.65,0.2-0.6,0.6    c0.06,0.49,0.47,0.35,0.76,0.31c1.59-0.23,3.18-0.26,4.78-0.01c0.3,0.05,0.75,0.25,0.83-0.34c0.06-0.48-0.25-0.66-0.62-0.71    c-1.1-0.15-1.3-0.85-1.23-1.81c0.05-0.71,0.03-1.44,0.01-2.16c-0.02-0.64,0.27-0.82,0.88-0.79c1.47,0.07,2.49,0.75,2.86,2.57    c0.45,2.25,1.43,3.52,3.88,3.19c0.08-0.01,0.16,0.03,0.24,0.04c0.23,0.01,0.5,0.12,0.6-0.2c0.09-0.28-0.05-0.52-0.3-0.57    c-1.05-0.18-1.21-1.06-1.48-1.84C448.85,449.19,447.97,447.64,445.76,447.18z M280.46,447.17c0.92-0.68,1.42-1.39,1.85-2.16    c0.49-0.89,0.98-1.72,2.24-1.65c0.61,0.03,1.28-1.33,1.14-2.13c-0.16-0.84-0.84-0.72-1.42-0.71c-1.05,0.02-1.68,0.68-2.1,1.55    c-0.43,0.9-0.76,1.84-1.2,2.74c-0.52,1.07-1.38,1.73-2.59,1.91c-0.58,0.08-0.91-0.04-0.88-0.73c0.04-0.88,0.05-1.76,0-2.64    c-0.07-1,0.14-1.74,1.28-1.91c0.34-0.05,0.65-0.21,0.55-0.62c-0.12-0.48-0.52-0.26-0.8-0.23c-1.6,0.22-3.18,0.23-4.78-0.01    c-0.28-0.04-0.7-0.21-0.77,0.28c-0.05,0.42,0.31,0.53,0.63,0.57c1.18,0.15,1.42,0.88,1.39,1.95c-0.06,2.44-0.07,4.87,0,7.31    c0.03,1.11-0.19,1.89-1.42,2.05c-0.34,0.05-0.66,0.19-0.61,0.59c0.08,0.57,0.56,0.35,0.86,0.3c1.55-0.22,3.1-0.23,4.66,0    c0.3,0.04,0.75,0.26,0.84-0.33c0.07-0.48-0.24-0.66-0.61-0.72c-1.09-0.15-1.31-0.84-1.24-1.8c0.06-0.71,0.03-1.44,0.01-2.16    c-0.02-0.63,0.26-0.83,0.87-0.8c1.47,0.07,2.5,0.75,2.87,2.56c0.46,2.24,1.41,3.54,3.88,3.2c0.11-0.02,0.24,0.04,0.35,0.05    c0.2,0.01,0.41,0.05,0.49-0.2c0.08-0.28-0.04-0.53-0.29-0.57c-1.11-0.2-1.24-1.14-1.52-1.95    C283.54,449.13,282.65,447.63,280.46,447.17z M270.29,401.91c-3.82-0.01-6.78,2.9-6.79,6.68c-0.01,3.96,2.72,6.73,6.65,6.75    c3.8,0.01,6.78-2.93,6.79-6.7C276.94,404.65,274.24,401.92,270.29,401.91z M396.63,408.66c0,3.95,2.74,6.68,6.7,6.67    c3.76-0.01,6.76-3.02,6.73-6.78c-0.03-3.94-2.77-6.66-6.74-6.65C399.5,401.91,396.63,404.81,396.63,408.66z M466.25,447.16    c-0.02-3.95-2.78-6.68-6.73-6.66c-3.76,0.02-6.74,3.08-6.67,6.84c0.07,3.92,2.87,6.63,6.82,6.59    C463.38,453.9,466.28,450.92,466.25,447.16z M476.59,446.78c0.23-0.19,0.31-0.28,0.41-0.34c1.3-0.7,2.18-1.68,1.83-3.26    c-0.34-1.58-1.6-2.1-3.01-2.29c-2.26-0.31-4.54-0.08-6.81-0.13c-0.29-0.01-0.71-0.15-0.76,0.33c-0.05,0.43,0.35,0.52,0.64,0.56    c1.19,0.15,1.4,0.89,1.38,1.95c-0.06,2.35-0.06,4.71,0,7.06c0.03,1.14-0.16,1.97-1.48,2.11c-0.34,0.04-0.63,0.23-0.54,0.63    c0.08,0.39,0.43,0.29,0.69,0.25c2.1-0.34,4.22-0.11,6.33-0.22c1.17-0.06,2.29-0.29,3.3-0.92c1.06-0.66,1.45-1.66,1.38-2.85    c-0.06-1.17-0.75-1.9-1.77-2.34C477.73,447.12,477.23,446.99,476.59,446.78z M371.22,451.68c1.16,1.94,2.72,2.55,4.28,1.75    c0.24-0.12,0.56-0.22,0.44-0.6c-0.12-0.37-0.36-0.31-0.67-0.21c-0.86,0.27-1.28-0.23-1.45-0.97c-0.13-0.54-0.19-1.1-0.2-1.65    c-0.03-2.03,0.02-4.07-0.04-6.1c-0.06-2.05-1.09-3.21-3.04-3.55c-2.3-0.39-4.25,0.35-5.92,1.9c-0.44,0.41-0.79,0.9-0.86,1.53    c-0.07,0.61,0.12,0.94,0.79,0.79c0.96-0.2,1.85-0.43,2.13-1.6c0.2-0.82,0.73-1.39,1.66-1.49c1.44-0.15,2.4,0.59,2.64,2.13    c0.3,1.85,0.15,2.06-1.73,2.49c-0.85,0.2-1.7,0.43-2.54,0.68c-0.73,0.22-1.41,0.55-2.03,1c-1.24,0.93-1.75,2.37-1.36,3.82    c0.31,1.12,1.43,1.91,2.96,2.06C368.26,453.86,370.01,453.46,371.22,451.68z M308.84,451.69c1.19,1.93,2.72,2.53,4.27,1.74    c0.24-0.12,0.56-0.22,0.46-0.59c-0.1-0.36-0.34-0.33-0.66-0.23c-0.86,0.29-1.29-0.21-1.46-0.95c-0.13-0.54-0.19-1.1-0.2-1.65    c-0.03-2.03,0.02-4.07-0.04-6.1c-0.06-2.05-1.08-3.22-3.03-3.56c-2.3-0.4-4.25,0.34-5.92,1.89c-0.44,0.41-0.79,0.89-0.87,1.53    c-0.07,0.59,0.09,0.96,0.77,0.81c0.95-0.2,1.85-0.41,2.14-1.59c0.2-0.82,0.72-1.4,1.65-1.51c1.44-0.16,2.4,0.58,2.66,2.12    c0.31,1.85,0.15,2.08-1.71,2.5c-0.47,0.11-0.93,0.24-1.39,0.35c-1.2,0.31-2.38,0.68-3.37,1.48c-1.2,0.96-1.51,2.26-1.16,3.66    c0.34,1.38,1.5,1.91,2.8,2.06C305.79,453.88,307.6,453.52,308.84,451.69z M432.39,451.64c1.12,1.97,2.38,2.52,4.07,1.86    c0.31-0.12,0.79-0.17,0.64-0.68c-0.14-0.48-0.48-0.21-0.78-0.14c-0.67,0.14-1.06-0.23-1.27-0.81c-0.21-0.57-0.26-1.16-0.26-1.77    c0-2.03,0.02-4.07-0.02-6.1c-0.02-1.2-0.36-2.29-1.4-3.03c-2.25-1.58-7.01-0.33-8.22,2.15c-0.21,0.44-0.4,0.95-0.06,1.34    c0.29,0.33,0.74,0.07,1.13-0.01c0.86-0.16,1.4-0.62,1.65-1.5c0.29-1.06,1.04-1.56,2.16-1.48c1.37,0.09,2.07,0.92,2.2,2.63    c0.12,1.49,0.03,1.59-1.68,1.97c-0.66,0.15-1.32,0.31-1.97,0.5c-1,0.29-1.97,0.64-2.8,1.3c-1.17,0.93-1.67,2.37-1.24,3.75    c0.43,1.36,1.54,1.89,2.84,2.02C429.31,453.86,431.11,453.55,432.39,451.64z M489.72,451.69c1.16,1.94,2.72,2.55,4.28,1.75    c0.24-0.12,0.56-0.22,0.44-0.6c-0.11-0.37-0.36-0.31-0.67-0.21c-0.86,0.28-1.28-0.23-1.46-0.97c-0.13-0.54-0.19-1.1-0.2-1.65    c-0.03-2.03,0.02-4.07-0.04-6.1c-0.06-2.05-1.09-3.22-3.04-3.55c-2.3-0.39-4.25,0.35-5.92,1.9c-0.44,0.41-0.79,0.9-0.86,1.53    c-0.07,0.6,0.11,0.94,0.79,0.8c0.95-0.2,1.85-0.43,2.13-1.6c0.2-0.82,0.72-1.39,1.66-1.5c1.44-0.16,2.4,0.59,2.65,2.13    c0.3,1.85,0.15,2.06-1.73,2.49c-0.85,0.2-1.7,0.43-2.54,0.68c-0.73,0.22-1.41,0.55-2.03,1c-1.24,0.93-1.76,2.37-1.36,3.82    c0.3,1.12,1.43,1.91,2.95,2.06C486.76,453.86,488.51,453.46,489.72,451.69z M259.36,447.52c0.06,3.02,1.44,5.21,3.81,6.07    c2.6,0.94,5.65,0.17,7.42-1.91c0.23-0.27,0.75-0.53,0.34-0.98c-0.44-0.49-0.77-0.06-1.1,0.24c-1.39,1.27-2.97,1.7-4.75,0.97    c-1.77-0.72-2.51-2.21-2.83-4c-0.16-0.91,0.14-1.17,1.05-1.18c2.27-0.03,4.55-0.17,6.82-0.26c0.43-0.02,0.87,0.04,0.93-0.63    c0.27-2.86-1.88-5.4-4.75-5.55C262.52,440.08,259.27,443.46,259.36,447.52z M251.75,440.75c-1.56,0-3.12-0.01-4.67,0.01    c-0.3,0-0.79-0.23-0.84,0.36c-0.04,0.44,0.36,0.49,0.65,0.55c0.84,0.17,1.07,0.71,1.01,1.5c-0.09,1.11-0.1,2.23-0.21,3.34    c-0.19,1.96-0.59,3.79-2.75,4.64c-0.7,0.27-0.72,1.52-0.15,2.34c0.58,0.83,1.19,0.41,1.73-0.02c0.67-0.54,1.04-1.31,1.38-2.08    c0.96-2.16,1.14-4.47,1.21-6.79c0.08-2.73,0.07-2.7,2.75-2.66c0.74,0.01,0.95,0.24,0.94,0.96c-0.03,2.63-0.05,5.27,0.01,7.9    c0.02,1.05-0.14,1.82-1.35,1.96c-0.34,0.04-0.62,0.24-0.53,0.65c0.09,0.39,0.44,0.28,0.7,0.26c1.64-0.1,3.27-0.11,4.91-0.01    c0.29,0.02,0.7,0.17,0.78-0.3c0.09-0.5-0.31-0.58-0.68-0.64c-1-0.17-1.34-0.73-1.31-1.76c0.07-2.51,0.07-5.03,0-7.54    c-0.03-1.01,0.27-1.6,1.3-1.77c0.3-0.05,0.69-0.12,0.65-0.55c-0.06-0.57-0.55-0.35-0.85-0.35    C254.87,440.74,253.31,440.75,251.75,440.75z M337.96,415.09c0-0.01,0-0.02,0-0.02c0.8,0,1.59-0.01,2.39,0    c0.84,0.01,1.67-0.08,2.48-0.34c1.97-0.62,2.94-2.05,2.75-4.07c-0.15-1.69-1.31-2.73-3.34-2.98c-0.47-0.06-0.95-0.09-1.43-0.1    c-2-0.03-1.95-0.03-2.01-2.03c-0.04-1.26,0-2.35,1.62-2.49c0.3-0.03,0.53-0.25,0.5-0.57c-0.05-0.52-0.49-0.29-0.75-0.3    c-1.67-0.02-3.35-0.02-5.02,0.01c-0.29,0.01-0.8-0.29-0.84,0.31c-0.03,0.47,0.37,0.55,0.74,0.61c0.97,0.17,1.23,0.76,1.2,1.71    c-0.07,2.27-0.05,4.55-0.01,6.82c0.02,1.2,0.13,2.36-1.53,2.53c-0.29,0.03-0.47,0.32-0.41,0.64c0.08,0.41,0.44,0.25,0.68,0.26    C335.97,415.09,336.97,415.09,337.96,415.09z M313.5,402.16c0,0.02,0,0.05,0,0.07c-1.08,0-2.16,0.05-3.24-0.01    c-3.4-0.17-2.62-0.27-3.28,2.61c-0.01,0.04-0.02,0.08-0.02,0.12c0,0.29-0.25,0.66,0.19,0.83c0.45,0.18,0.67-0.12,0.81-0.48    c0.6-1.5,1.87-1.82,3.3-1.92c0.73-0.05,0.97,0.18,0.95,0.93c-0.04,2.56-0.05,5.11,0,7.67c0.02,1.09-0.03,2.01-1.38,2.19    c-0.34,0.05-0.59,0.3-0.5,0.68c0.1,0.38,0.45,0.25,0.71,0.24c1.6-0.08,3.19-0.09,4.79-0.01c0.29,0.02,0.73,0.19,0.82-0.23    c0.12-0.51-0.31-0.64-0.72-0.75c-0.65-0.17-1.15-0.41-1.14-1.27c0.04-2.87,0.03-5.75,0-8.63c-0.01-0.62,0.19-0.86,0.82-0.82    c1.47,0.08,2.78,0.36,3.4,1.93c0.14,0.36,0.39,0.63,0.83,0.46c0.46-0.17,0.21-0.52,0.16-0.81c-0.08-0.47-0.21-0.94-0.25-1.41    c-0.08-1.09-0.57-1.5-1.71-1.42C316.54,402.24,315.02,402.16,313.5,402.16z M321.51,408.9c0,0.12,0,0.24,0,0.36    c0.04,2.53,1.02,4.57,3.43,5.54c2.58,1.04,5.1,0.7,7.33-1.05c0.24-0.19,0.69-0.41,0.3-0.86c-0.31-0.35-0.64-0.22-0.97-0.01    c-0.14,0.08-0.27,0.16-0.42,0.24c-2.33,1.25-4.95,0.5-6.13-1.84c-0.96-1.9-0.99-3.93-0.4-5.95c0.34-1.18,1.14-2.02,2.43-2.21    c1.27-0.19,2.05,0.52,2.57,1.55c0.38,0.74,0.95,0.93,1.69,0.73c0.48-0.13,1.17-0.06,1.29-0.69c0.14-0.79-0.39-1.35-0.99-1.78    c-0.35-0.25-0.76-0.45-1.16-0.6C326.01,400.65,321.51,403.95,321.51,408.9z M294.08,453.7c1.64,0,3.16-0.37,4.47-1.42    c0.25-0.2,0.68-0.41,0.39-0.86c-0.27-0.43-0.61-0.21-0.93-0.03c-0.14,0.08-0.27,0.16-0.41,0.24c-2.53,1.36-5.36,0.36-6.4-2.32    c-0.55-1.43-0.72-2.93-0.42-4.47c0.28-1.47,0.89-2.67,2.46-3.06c1.48-0.36,2.27,0.56,2.95,1.7c0.42,0.71,1.93,0.9,2.54,0.26    c0.71-0.74,0.06-1.37-0.45-1.92c-0.21-0.23-0.49-0.42-0.76-0.57c-2.27-1.29-5.14-0.96-7.25,0.83c-2.19,1.85-3.01,5.1-1.99,7.85    C289.19,452.39,291.22,453.71,294.08,453.7z M482.61,415.08c0,0,0-0.01,0-0.01c0.8,0,1.6,0.02,2.39-0.01    c0.31-0.01,0.78,0.26,0.86-0.31c0.06-0.48-0.32-0.55-0.69-0.64c-0.67-0.17-1.27-0.35-1.24-1.3c0.13-3.31-0.18-6.62,0.17-9.92    c0.09-0.85-0.26-1.11-1.03-0.92c-1.01,0.25-2.02,0.44-3.07,0.44c-0.27,0-0.59-0.02-0.63,0.38c-0.04,0.44,0.25,0.53,0.6,0.56    c1.14,0.11,1.39,0.85,1.37,1.85c-0.03,2.15-0.03,4.31,0,6.46c0.02,1.18,0.19,2.39-1.52,2.53c-0.29,0.02-0.47,0.32-0.41,0.63    c0.08,0.41,0.43,0.25,0.68,0.26C480.93,415.09,481.77,415.08,482.61,415.08z M482.67,398.7c0.99-0.01,1.71-0.75,1.72-1.75    c0.01-1.03-0.78-1.84-1.79-1.82c-0.94,0.02-1.72,0.81-1.74,1.77C480.85,397.91,481.65,398.72,482.67,398.7z"/>
		<path class="st1" d="M170.13,396.41c-3.13,0.96-5.86-0.96-8.7-3.18c-8.22-6.42-17.47-10.89-27.53-13.62    c-4.2-1.14-8.45-2.1-12.67-3.16c-0.8-0.2-1.55-0.2-2.35,0c-5.92,1.51-11.91,2.7-17.7,4.71c-9.43,3.27-17.97,8.08-25.64,14.46    c-0.65,0.54-1.29,0.82-2.16,0.81c-2.88-0.05-5.76,0-8.63-0.03c-0.74-0.01-1.12,0.21-1.41,0.95c-1.06,2.77-2.93,4.84-5.7,5.99    c-0.8,0.33-0.84,0.82-0.71,1.51c1.27,6.7,2.54,13.41,3.81,20.12c1.53,8.07,3.09,16.14,4.57,24.23c0.2,1.1,0.63,1.42,1.72,1.4    c3.44-0.06,3.44-0.02,3.37,3.43c-0.17,8.2-7.38,15.7-15.6,16.22c-9,0.57-16.45-5.06-18.31-13.87c-0.36-1.73-0.12-3.51-0.16-5.26    c-0.01-0.62,0.45-0.55,0.84-0.55c1.12,0,2.24-0.02,3.36,0.01c0.68,0.02,0.99-0.27,1.12-0.95c1.49-7.95,3-15.9,4.51-23.85    c1.31-6.93,2.61-13.87,3.98-20.79c0.19-0.95-0.01-1.32-0.88-1.69c-4.3-1.84-6.81-6.51-6.16-11.26c0.58-4.2,4.46-8.02,8.82-8.69    c4.74-0.73,9.53,1.99,11.28,6.47c0.34,0.88,0.76,1.23,1.73,1.2c2.24-0.08,4.48-0.04,6.72-0.01c0.68,0.01,1.22-0.18,1.75-0.61    c10.67-8.59,22.74-14.26,36.08-17.28c2.96-0.67,5.94-1.28,8.85-2.13c1.59-0.46,2.99-0.06,4.45,0.28    c5.94,1.4,11.92,2.65,17.71,4.65c6.92,2.38,13.39,5.62,19.52,9.59c2.28,1.48,4.48,3.08,6.58,4.8c0.63,0.51,1.27,0.72,2.08,0.7    c2.2-0.04,4.4-0.05,6.6,0.01c0.87,0.02,1.25-0.28,1.57-1.08c1.79-4.52,6.1-7.06,11.09-6.61c4.17,0.37,8.02,3.97,8.97,8.36    c0.99,4.61-1.32,9.25-5.82,11.47c-1.01,0.5-1.26,0.96-1.03,2.07c1.45,7.23,2.83,14.47,4.21,21.72c1.41,7.44,2.81,14.88,4.17,22.33    c0.18,0.98,0.56,1.43,1.57,1.29c0.31-0.04,0.64-0.01,0.96-0.01c2.86,0,2.88,0,2.83,2.8c-0.24,12.28-12.99,20.53-24.12,15.44    c-6.75-3.09-10.56-9.47-10.2-17.36c0.03-0.68,0.33-0.91,0.97-0.89c0.96,0.03,1.92-0.05,2.88,0.02c0.96,0.08,1.34-0.31,1.51-1.23    c0.89-4.87,1.83-9.72,2.75-14.59c1.89-10.03,3.77-20.07,5.69-30.09c0.13-0.7-0.01-1.03-0.64-1.28c-2.83-1.14-4.72-3.23-5.8-6.04    c-0.29-0.74-0.67-0.98-1.41-0.96C173.86,396.44,172.34,396.41,170.13,396.41z M186.73,416.88c-0.1,0.02-0.2,0.03-0.3,0.05    c-0.11,0.62-0.21,1.24-0.33,1.85c-1.93,10.15-3.85,20.3-5.8,30.45c-0.19,0.99,0,1.36,1.08,1.34c3.04-0.06,6.08-0.02,9.11-0.02    c2.69,0,2.67,0,2.17-2.58c-1.62-8.5-3.23-17-4.85-25.5C187.47,420.62,187.09,418.75,186.73,416.88z M53.63,416.58    c-0.2,0.39-0.26,0.45-0.27,0.53c-2.06,10.84-4.12,21.68-6.19,32.52c-0.13,0.69,0.1,0.94,0.8,0.94c3.72-0.02,7.43-0.02,11.15,0    c0.78,0,0.93-0.28,0.76-1.03c-0.37-1.63-0.63-3.29-0.94-4.94c-1.4-7.45-2.8-14.9-4.2-22.34C54.4,420.47,54.04,418.69,53.63,416.58    z M53.3,455.91c-3.39,0-6.79,0.02-10.18-0.01c-0.85-0.01-1.16,0.15-0.84,1.09c1.57,4.58,6.11,7.9,10.92,7.91    c4.95,0.01,9.58-3.23,11.16-7.76c0.33-0.96,0.18-1.27-0.88-1.25C60.08,455.94,56.69,455.91,53.3,455.91z M186.74,455.91    c-3.32,0-6.63,0-9.95,0c-1.56,0-1.62,0.09-1.08,1.53c1.71,4.53,6.21,7.52,11.23,7.47c4.59-0.05,9.17-3.45,10.73-7.9    c0.33-0.94-0.03-1.1-0.86-1.1C193.45,455.92,190.09,455.91,186.74,455.91z M186.63,388.65c-2.7-0.03-5.07,2.27-5.11,4.97    c-0.04,2.82,2.21,5.14,5.02,5.17c2.81,0.03,5.05-2.19,5.11-5.07C191.7,391.08,189.33,388.68,186.63,388.65z M48.53,393.69    c0.01,2.88,2.25,5.14,5.06,5.11c2.71-0.03,4.99-2.29,5.01-4.96c0.02-2.8-2.32-5.2-5.05-5.18    C50.74,388.67,48.53,390.89,48.53,393.69z"/>
		<path class="st1" d="M117.39,447.64c0-19.86,0-39.72,0-59.58c0-1.67,0-1.67-1.65-1.25c-1.32,0.33-2.62,0.72-3.95,0.95    c-1.03,0.18-1.34,0.65-1.33,1.69c0.05,6.83,0.02,13.67,0.02,20.5c0,27.33,0,54.66,0,81.99c0,0.28,0.01,0.56-0.01,0.84    c-0.09,1.33-1,2.34-2.29,2.56c-1.13,0.2-2.36-0.54-2.87-1.71c-0.3-0.69-0.26-1.4-0.26-2.12c0-33.36,0-66.73,0-100.09    c0-1.64-0.01-1.66-1.52-1.09c-5.84,2.2-11.18,5.29-16.16,9.03c-0.77,0.58-1.08,1.19-1.06,2.21c0.08,3.91,0.06,7.83,0.02,11.75    c-0.02,2.35-1.69,3.8-3.54,3.16c-1.13-0.39-1.83-1.19-1.83-2.4c-0.03-5.23-0.01-10.47-0.02-15.7c0-0.72,0.47-1.06,0.93-1.44    c8.5-6.99,18.07-11.85,28.79-14.4c2.91-0.69,5.83-1.37,8.75-2.05c0.35-0.08,0.7-0.16,1.06-0.07c6.24,1.52,12.56,2.75,18.57,5.13    c6.68,2.63,12.71,6.32,18.37,10.69c1.36,1.05,1.99,2.1,1.93,3.88c-0.14,4.27-0.04,8.55-0.05,12.82c0,0.44-0.01,0.88-0.09,1.31    c-0.28,1.47-1.53,2.52-2.83,2.41c-1.42-0.13-2.49-1.32-2.49-2.89c-0.02-4.08-0.03-8.15,0.01-12.23c0.01-0.89-0.25-1.48-0.96-2.02    c-5.17-3.9-10.71-7.1-16.79-9.37c-0.92-0.34-1.09-0.06-1.09,0.81c0.02,11.99,0.02,23.97,0.02,35.96c0,9.51,0,19.02,0,28.53    c0,12.07,0,24.13,0,36.2c0,0.64,0.03,1.28-0.2,1.89c-0.46,1.2-1.63,1.97-2.8,1.83c-1.31-0.15-2.32-1.21-2.41-2.57    c-0.04-0.56-0.03-1.12-0.03-1.68c0-33.8-0.01-67.61,0.03-101.41c0-1.25-0.36-1.77-1.55-1.99c-1.49-0.27-2.96-0.66-4.42-1.07    c-0.73-0.2-0.97,0.04-0.95,0.72c0.01,0.28,0,0.56,0,0.84c0,17.9,0,35.8,0,53.7c0,16.54,0,33.08,0,49.62c0,5.35,0,10.7-0.01,16.06    c0,1.26-0.9,2.41-2,2.65c-1.27,0.28-2.5-0.32-3.1-1.49c-0.35-0.68-0.22-1.41-0.22-2.12c-0.01-11.79-0.01-23.57-0.01-35.36    C117.39,463.38,117.39,455.51,117.39,447.64z"/>
		<path class="st1" d="M360.74,427.09c-46.13,0-92.26,0-138.4-0.02c-0.5,0-1.31,0.38-1.47-0.3c-0.2-0.83-0.06-1.74-0.01-2.62    c0.01-0.2,0.32-0.18,0.52-0.19c0.36,0,0.72,0,1.08,0c92.22,0,184.45,0,276.67,0.01c0.52,0,1.35-0.33,1.51,0.25    c0.23,0.81,0.08,1.74,0.04,2.62c-0.01,0.23-0.28,0.24-0.48,0.24c-0.36,0-0.72,0-1.08,0C453,427.09,406.87,427.09,360.74,427.09z"/>
		<path class="st1" d="M110.19,340.68c-0.01-5.46,4.31-9.58,9.81-9.79c4.45-0.17,9.98,3.62,9.99,10.05    c0.01,5.25-4.56,9.74-9.95,9.74C114.53,350.7,110.19,346.29,110.19,340.68z M119.99,345.26c2.46,0.02,4.59-2.03,4.58-4.42    c-0.01-2.42-2.08-4.51-4.5-4.54c-2.29-0.03-4.5,2.12-4.51,4.39C115.56,343.16,117.57,345.24,119.99,345.26z"/>
		<path class="st1" d="M119.96,367.56c-5.04,0-10.07-0.01-15.11,0.01c-0.93,0-1.76-0.19-2.41-0.85c-0.72-0.74-0.99-1.63-0.69-2.64    c0.29-1.02,1.02-1.59,2-1.88c0.26-0.08,0.55-0.09,0.83-0.09c10.31,0,20.62-0.01,30.94,0c1.88,0,3.02,1.17,2.94,2.87    c-0.07,1.54-1.25,2.57-3.02,2.57C130.27,367.57,125.12,367.56,119.96,367.56z"/>
		<path class="st1" d="M231.97,453.94c-5.67,0-9.61-4.15-9.61-10.12c0-5.65,4.29-10.26,9.53-10.26c6.2,0,10.24,4.09,10.22,10.33    C242.1,449.83,237.95,453.93,231.97,453.94z M239.04,444.94c-0.08-2.5-0.42-4.94-1.88-7.07c-1.52-2.21-3.69-3.18-6.32-2.79    c-2.68,0.39-4.44,2.06-5.01,4.68c-0.75,3.48-0.29,6.86,1.67,9.89c1.37,2.12,3.44,3.1,5.96,2.78c2.58-0.33,4.24-1.88,5.11-4.31    C238.93,447.1,239.1,446.04,239.04,444.94z"/>
		<path class="st1" d="M120.02,358.96c-2.92,0-5.83,0.01-8.75,0c-1.84-0.01-3.05-1.08-3.05-2.66c0-1.66,1.2-2.77,3.08-2.78    c5.83-0.01,11.67,0.04,17.5-0.03c1.85-0.02,3.16,1.45,3.14,2.77c-0.02,1.63-1.25,2.69-3.18,2.7    C125.86,358.97,122.94,358.96,120.02,358.96z"/>
		<path class="st1" d="M417.82,447.08c0-1.32-0.03-2.64,0.01-3.96c0.03-0.83-0.17-1.4-1.1-1.52c-0.29-0.04-0.69-0.13-0.59-0.59    c0.09-0.38,0.45-0.26,0.7-0.27c1.6-0.01,3.2-0.01,4.8,0c0.25,0,0.61-0.11,0.67,0.3c0.06,0.43-0.29,0.56-0.6,0.59    c-1.12,0.14-1.38,0.79-1.35,1.84c0.07,2.52,0.06,5.04,0,7.55c-0.02,0.98,0.32,1.51,1.26,1.69c0.37,0.07,0.78,0.14,0.69,0.63    c-0.1,0.56-0.57,0.29-0.88,0.28c-6.31-0.27-12.62-0.27-18.93,0c-0.32,0.01-0.8,0.26-0.92-0.25c-0.13-0.58,0.39-0.59,0.77-0.67    c0.96-0.19,1.24-0.78,1.22-1.73c-0.05-2.52-0.05-5.03,0-7.55c0.02-0.99-0.25-1.62-1.3-1.78c-0.33-0.05-0.8-0.11-0.69-0.62    c0.1-0.44,0.52-0.28,0.81-0.28c1.56-0.01,3.12-0.01,4.68,0c0.27,0,0.61-0.06,0.67,0.32c0.06,0.38-0.25,0.49-0.52,0.52    c-1.05,0.13-1.22,0.8-1.21,1.71c0.03,2.64,0.05,5.27-0.01,7.91c-0.02,0.85,0.25,1.12,1.08,1.06c1.15-0.08,2.65,0.36,3.37-0.22    c0.77-0.61,0.22-2.17,0.24-3.31c0.05-1.84,0-3.68,0.02-5.51c0.01-0.84-0.17-1.51-1.17-1.62c-0.26-0.03-0.6-0.11-0.59-0.48    c0.02-0.5,0.44-0.37,0.73-0.37c1.56-0.01,3.12-0.01,4.68,0c0.26,0,0.61-0.09,0.66,0.32c0.04,0.38-0.28,0.48-0.54,0.51    c-1.19,0.11-1.31,0.88-1.29,1.87c0.04,2.64,0.03,5.27,0,7.91c-0.01,0.65,0.15,0.96,0.86,0.9c1.22-0.11,2.82,0.51,3.56-0.27    c0.59-0.62,0.18-2.2,0.2-3.35C417.83,448.12,417.82,447.6,417.82,447.08z"/>
		<path class="st1" d="M350.98,442.73c0.68-0.21,0.98-0.72,1.4-1.05c2.54-2.04,5.98-1.4,7.58,1.43c1.69,2.99,1.12,6.83-1.36,9.11    c-1.91,1.76-4.14,2.19-6.55,1.29c-1.06-0.39-1.21-0.06-1.16,0.88c0.06,1.15,0.07,2.32,0,3.47c-0.08,1.19,0.4,1.81,1.57,1.93    c0.36,0.04,0.71,0.11,1.06,0.16c0.35,0.05,0.64,0.19,0.6,0.6c-0.04,0.42-0.4,0.32-0.65,0.3c-2.07-0.19-4.14-0.31-6.21,0    c-0.26,0.04-0.6,0.1-0.67-0.29c-0.06-0.33,0.16-0.55,0.46-0.59c1.29-0.19,1.34-1.09,1.34-2.13c-0.03-4.51-0.01-9.02-0.02-13.53    c0-1.19,0.14-2.51-1.63-2.62c-0.23-0.01-0.34-0.2-0.33-0.42c0.02-0.26,0.24-0.27,0.44-0.3c1.11-0.14,2.21-0.29,3.32-0.45    c0.67-0.09,0.84,0.25,0.81,0.84C350.96,441.79,350.98,442.21,350.98,442.73z M350.86,448.28c0.13,0.83-0.4,2,0.23,2.85    c0.89,1.21,2.28,1.73,3.81,1.58c1.32-0.12,2.19-0.95,2.63-2.15c0.8-2.19,0.78-4.39-0.25-6.5c-1.3-2.64-4.02-2.79-5.67-0.35    c-0.48,0.71-0.76,1.49-0.75,2.35C350.86,446.74,350.86,447.41,350.86,448.28z"/>
		<path class="st1" d="M425.17,405.84c-1.25,2.7-2.5,5.4-3.75,8.1c-0.1,0.22-0.19,0.44-0.29,0.66c-0.16,0.35-0.41,0.63-0.8,0.64    c-0.41,0.01-0.44-0.41-0.56-0.68c-1.21-2.65-2.41-5.3-3.63-7.94c-0.16-0.34-0.21-0.76-0.72-1.07c-0.11,2.61-0.23,5.13-0.31,7.65    c-0.02,0.78,0.71,0.75,1.2,0.92c0.38,0.13,0.72,0.28,0.63,0.72c-0.1,0.44-0.52,0.23-0.81,0.23c-1.2,0.01-2.39,0.02-3.59,0    c-0.27,0-0.7,0.23-0.77-0.27c-0.06-0.38,0.2-0.62,0.56-0.64c1.32-0.1,1.39-1.01,1.43-2.04c0.09-2.43,0.19-4.86,0.38-7.29    c0.08-0.98-0.2-1.53-1.18-1.7c-0.36-0.06-0.77-0.15-0.73-0.62c0.05-0.59,0.56-0.31,0.85-0.32c3.69-0.06,3.69-0.05,5.22,3.32    c0.87,1.92,1.73,3.84,2.69,5.98c0.85-1.8,1.61-3.42,2.37-5.03c0.2-0.43,0.4-0.87,0.6-1.3c1.51-3.21,1.51-3.22,5.13-2.98    c0.25,0.02,0.61-0.14,0.63,0.32c0.02,0.34-0.21,0.54-0.5,0.57c-1.48,0.12-1.48,1.09-1.4,2.22c0.18,2.43,0.33,4.85,0.4,7.28    c0.02,0.87,0.31,1.35,1.15,1.51c0.4,0.07,0.89,0.16,0.79,0.69c-0.11,0.6-0.65,0.27-0.99,0.28c-1.48,0.03-2.95,0.03-4.43,0.01    c-0.31,0-0.79,0.26-0.86-0.32c-0.04-0.37,0.25-0.57,0.6-0.61c1.18-0.15,1.25-0.89,1.21-1.9c-0.09-2.11-0.03-4.22-0.03-6.33    C425.52,405.88,425.35,405.86,425.17,405.84z"/>
		<path class="st1" d="M230.34,415.09c-1,0-1.99,0.01-2.99-0.01c-0.28-0.01-0.68,0.19-0.78-0.29c-0.09-0.43,0.15-0.63,0.54-0.78    c1.57-0.61,1.57-0.63,0.93-2.25c-0.5-1.26-0.69-2.92-1.61-3.65c-0.99-0.78-2.69-0.21-4.07-0.23c-2.41-0.04-2.41-0.01-3.33,2.27    c-0.28,0.7-0.53,1.42-0.86,2.1c-0.47,0.96-0.25,1.51,0.83,1.69c0.27,0.04,0.54,0.14,0.79,0.26c0.25,0.12,0.28,0.37,0.23,0.62    c-0.05,0.26-0.26,0.28-0.46,0.27c-1.75-0.07-3.51-0.13-5.26-0.01c-0.28,0.02-0.44-0.12-0.45-0.42c-0.01-0.33,0.15-0.6,0.45-0.62    c1.86-0.08,2.2-1.56,2.74-2.88c1.99-4.82,4-9.64,6.01-14.46c0.11-0.26,0.23-0.51,0.33-0.77c0.15-0.37,0.27-0.8,0.75-0.83    c0.54-0.03,0.58,0.47,0.72,0.82c1.35,3.32,2.7,6.64,4.04,9.97c0.85,2.11,1.71,4.21,2.52,6.33c0.36,0.94,0.9,1.57,1.93,1.72    c0.45,0.07,0.92,0.2,0.84,0.8c-0.09,0.63-0.62,0.34-0.97,0.35C232.26,415.09,231.3,415.08,230.34,415.09    C230.34,415.08,230.34,415.08,230.34,415.09z M220.49,406.5c1.72,0,3.27,0,4.82,0c0.38,0,0.67-0.1,0.5-0.54    c-0.79-2.12-1.6-4.23-2.5-6.6C222.33,401.85,221.45,404.07,220.49,406.5z"/>
		<path class="st1" d="M242.81,402.18c1.64,0,3.27-0.01,4.91,0.01c0.24,0,0.61-0.19,0.7,0.22c0.08,0.38-0.15,0.63-0.52,0.67    c-1.34,0.14-1.49,1-1.46,2.12c0.06,2.31,0.05,4.63,0,6.95c-0.02,1.03,0.22,1.72,1.38,1.81c0.68,0.05,0.85,0.5,0.72,1.1    c-0.31,1.46-0.18,2.94-0.2,4.42c-0.01,0.57,0.06,1.19-0.7,1.3c-0.88,0.13-0.62-0.63-0.74-1.06c-0.13-0.46-0.19-0.94-0.31-1.4    c-0.68-2.67-1.5-3.31-4.26-3.31c-0.84,0-1.68,0.04-2.52-0.01c-1.55-0.09-2.45,0.71-3.04,2.04c-0.44,1-0.58,2.07-0.83,3.11    c-0.09,0.36-0.12,0.74-0.65,0.63c-0.43-0.09-0.75-0.26-0.69-0.79c0.18-1.71,0.22-3.42,0.09-5.14c-0.04-0.46,0.2-0.77,0.61-0.92    c1.51-0.55,2.21-1.76,2.63-3.19c0.62-2.09,0.7-4.24,0.75-6.4c0.01-0.67-0.31-1.04-0.92-1.2c-0.36-0.09-0.77-0.21-0.67-0.67    c0.11-0.51,0.59-0.27,0.9-0.28C239.61,402.17,241.21,402.18,242.81,402.18z M238.01,413.74c1.75,0,3.33-0.03,4.91,0.01    c0.73,0.02,0.97-0.22,0.95-0.95c-0.04-2.23-0.01-4.46-0.01-6.69c0-2.82,0-2.79-2.84-2.75c-0.79,0.01-1.04,0.28-1.04,1.03    C239.99,407.59,239.79,410.74,238.01,413.74z"/>
		<path class="st1" d="M392.66,444.94c1.27-3.05,2.47-5.91,3.66-8.77c0.24-0.58-0.06-0.91-0.57-1.1c-0.3-0.11-0.61-0.17-0.92-0.26    c-0.34-0.1-0.37-0.38-0.34-0.67c0.03-0.34,0.3-0.34,0.53-0.3c1.71,0.24,3.42,0.26,5.13,0c0.23-0.04,0.5-0.04,0.55,0.29    c0.06,0.36-0.08,0.7-0.45,0.71c-1.84,0.07-2.25,1.53-2.81,2.84c-1.7,3.96-3.39,7.92-5.12,11.86c-0.87,1.99-2.23,3.5-4.45,4.01    c-0.59,0.14-1.37,0.5-1.75-0.19c-0.45-0.84-0.01-1.7,0.38-2.5c0.32-0.65,0.88-0.57,1.45-0.42c1.11,0.29,2.03,0.07,2.73-0.93    c0.43-0.62,0.51-1.15,0.15-1.87c-1.87-3.7-3.69-7.43-5.52-11.16c-0.39-0.8-0.9-1.4-1.83-1.54c-0.41-0.06-0.82-0.2-0.74-0.74    c0.1-0.66,0.63-0.36,0.95-0.33c1.84,0.21,3.67,0.19,5.5-0.01c0.32-0.04,0.78-0.25,0.9,0.28c0.11,0.51-0.25,0.73-0.69,0.78    c-1.09,0.11-1.22,0.63-0.77,1.54C389.96,439.22,391.26,442,392.66,444.94z"/>
		<path class="st1" d="M339.18,440.75c1.6,0,3.2-0.01,4.79,0.01c0.29,0,0.7-0.16,0.79,0.3c0.08,0.43-0.3,0.55-0.6,0.59    c-1.23,0.13-1.38,0.9-1.35,1.94c0.06,2.47,0.04,4.95,0.01,7.43c-0.01,0.87,0.3,1.4,1.18,1.48c0.72,0.07,0.94,0.39,0.85,1.1    c-0.18,1.55-0.24,3.1-0.17,4.66c0.02,0.44,0.05,0.89-0.59,0.97c-0.64,0.07-0.68-0.33-0.77-0.79c-0.21-1.05-0.38-2.12-0.86-3.1    c-0.59-1.22-1.48-1.93-2.92-1.87c-1.08,0.05-2.16,0-3.24,0.01c-1.76,0.01-2.61,0.61-3.27,2.25c-0.36,0.9-0.54,1.83-0.7,2.78    c-0.07,0.44-0.18,0.76-0.73,0.72c-0.64-0.05-0.67-0.46-0.6-0.93c0.22-1.59,0.2-3.18,0.1-4.78c-0.02-0.36-0.08-0.77,0.36-0.91    c2.32-0.76,2.81-2.77,3.23-4.78c0.32-1.57,0.35-3.17,0.37-4.77c0.01-0.74-0.2-1.23-0.99-1.38c-0.3-0.06-0.7-0.13-0.66-0.55    c0.06-0.56,0.55-0.35,0.86-0.35C335.9,440.74,337.54,440.75,339.18,440.75z M334.25,452.26c1.83,0,3.47-0.04,5.1,0.02    c0.75,0.03,0.94-0.22,0.93-0.94c-0.04-2.19-0.02-4.38-0.02-6.57c0-2.85,0-2.82-2.86-2.83c-0.87,0-1.02,0.3-1.05,1.09    C336.21,446.16,336.17,449.32,334.25,452.26z"/>
		<path class="st1" d="M474.31,415.09c-0.84,0-1.68,0.01-2.51,0c-0.25,0-0.62,0.13-0.66-0.28c-0.03-0.28,0.11-0.59,0.44-0.63    c1.76-0.18,1.42-1.5,1.42-2.62c0.01-2.45,0-2.45-2.4-2.45c-0.08,0-0.16-0.01-0.24,0c-1.06,0.09-2.68-0.48-3.06,0.23    c-0.54,1-0.19,2.48-0.2,3.75c-0.01,0.76,0.64,0.84,1.15,1.01c0.38,0.12,0.74,0.27,0.68,0.69c-0.08,0.54-0.57,0.28-0.88,0.29    c-1.56,0.02-3.11,0.01-4.67,0.01c-0.29,0-0.71,0.18-0.79-0.28c-0.08-0.45,0.26-0.62,0.65-0.68c1.1-0.17,1.34-0.86,1.31-1.89    c-0.06-2.43-0.06-4.87,0-7.3c0.02-1-0.27-1.61-1.29-1.8c-0.38-0.07-0.76-0.22-0.67-0.67c0.09-0.44,0.52-0.25,0.81-0.26    c1.56-0.02,3.11-0.02,4.67,0c0.29,0,0.72-0.17,0.81,0.27c0.09,0.47-0.3,0.6-0.67,0.67c-0.94,0.17-1.15,0.75-1.14,1.64    c0.02,3.12-0.01,3.12,3.07,3.12c2.88,0,2.84,0,2.89-2.83c0.02-1.04-0.12-1.82-1.33-1.99c-0.36-0.05-0.61-0.3-0.54-0.66    c0.07-0.4,0.45-0.23,0.7-0.24c1.64-0.01,3.27-0.01,4.91,0c0.28,0,0.7-0.16,0.75,0.34c0.04,0.41-0.29,0.53-0.62,0.58    c-1.1,0.17-1.34,0.86-1.31,1.88c0.06,2.43,0.07,4.87,0,7.3c-0.03,0.99,0.22,1.63,1.25,1.8c0.38,0.06,0.75,0.2,0.73,0.64    c-0.04,0.59-0.54,0.32-0.84,0.33c-0.8,0.03-1.6,0.01-2.39,0.01C474.31,415.08,474.31,415.08,474.31,415.09z"/>
		<path class="st1" d="M326.55,440.75c0.84,0,1.68-0.01,2.52,0.01c0.25,0,0.6-0.1,0.64,0.33c0.03,0.3-0.16,0.48-0.4,0.5    c-1.55,0.15-1.58,1.19-1.55,2.4c0.06,2.31,0.06,4.63,0,6.95c-0.03,0.99,0.21,1.63,1.26,1.8c0.37,0.06,0.78,0.14,0.69,0.63    c-0.1,0.57-0.58,0.32-0.88,0.27c-1.56-0.24-3.1-0.2-4.65,0.01c-0.28,0.04-0.7,0.21-0.83-0.22c-0.14-0.47,0.21-0.63,0.6-0.7    c1.02-0.18,1.36-0.79,1.27-1.79c-0.08-0.87-0.04-1.76-0.01-2.63c0.02-0.6-0.16-0.86-0.8-0.84c-1.44,0.04-2.88,0.04-4.31,0    c-0.72-0.02-0.88,0.3-0.85,0.93c0.03,0.76,0.05,1.52,0,2.27c-0.08,1.07,0.09,1.91,1.37,2.08c0.38,0.05,0.56,0.31,0.45,0.69    c-0.11,0.39-0.47,0.25-0.71,0.21c-1.63-0.25-3.26-0.24-4.89,0c-0.29,0.04-0.7,0.17-0.74-0.33c-0.03-0.41,0.3-0.53,0.63-0.57    c1.17-0.15,1.42-0.87,1.4-1.94c-0.06-2.43-0.06-4.87,0-7.3c0.03-1.05-0.27-1.69-1.36-1.85c-0.3-0.04-0.69-0.12-0.66-0.55    c0.04-0.49,0.46-0.35,0.75-0.35c1.64-0.01,3.28-0.01,4.91,0c0.25,0,0.61-0.12,0.68,0.29c0.08,0.43-0.27,0.56-0.58,0.61    c-1.07,0.16-1.27,0.83-1.26,1.8c0.03,3.05,0,3.05,3.03,3.05c2.95,0,2.92,0,2.95-3c0.01-1-0.14-1.73-1.3-1.87    c-0.31-0.04-0.67-0.18-0.58-0.61c0.08-0.38,0.44-0.28,0.7-0.28C324.87,440.74,325.71,440.75,326.55,440.75z"/>
		<path class="st1" d="M439.37,402.18c2.12,0,4.24-0.01,6.35,0.01c0.32,0,0.81-0.24,0.91,0.26c0.09,0.43-0.3,0.59-0.69,0.65    c-1.09,0.17-1.36,0.84-1.33,1.88c0.07,2.43,0.06,4.87,0,7.31c-0.03,1,0.26,1.62,1.28,1.8c0.38,0.06,0.76,0.18,0.74,0.63    c-0.04,0.59-0.53,0.34-0.84,0.34c-1.6,0.02-3.19,0.01-4.79,0.01c-0.29,0-0.7,0.17-0.76-0.32c-0.05-0.39,0.22-0.58,0.58-0.63    c1.07-0.16,1.26-0.83,1.24-1.81c-0.06-2.64-0.04-5.27-0.01-7.91c0.01-0.76-0.19-1.08-1-1.04c-1.24,0.06-2.48,0.06-3.72,0    c-0.82-0.04-1.01,0.29-1,1.04c0.04,2.68,0.04,5.35,0,8.03c-0.02,0.89,0.2,1.48,1.14,1.65c0.43,0.08,0.83,0.26,0.7,0.76    c-0.11,0.42-0.54,0.23-0.83,0.21c-1.6-0.08-3.19-0.08-4.79,0.01c-0.26,0.01-0.61,0.12-0.7-0.25c-0.09-0.37,0.13-0.63,0.5-0.67    c1.4-0.18,1.49-1.11,1.46-2.26c-0.06-2.32-0.06-4.63,0-6.95c0.02-0.99-0.23-1.63-1.26-1.82c-0.37-0.07-0.78-0.19-0.69-0.65    c0.1-0.53,0.59-0.28,0.9-0.28C434.98,402.17,437.17,402.18,439.37,402.18z"/>
		<path class="st1" d="M491.72,409.18c-0.44-0.16-0.7-0.26-0.95-0.36c-1.32-0.5-2.11-1.41-2.17-2.86c-0.06-1.47,0.61-2.51,1.93-3.15    c0.77-0.38,1.6-0.54,2.43-0.57c2.15-0.06,4.31-0.05,6.46-0.07c0.26,0,0.62-0.12,0.69,0.27c0.06,0.39-0.23,0.59-0.57,0.63    c-1.33,0.16-1.46,1.03-1.42,2.15c0.06,2.35,0.07,4.71,0,7.06c-0.03,0.99,0.22,1.63,1.25,1.8c0.43,0.07,0.83,0.25,0.72,0.75    c-0.1,0.43-0.54,0.23-0.82,0.22c-1.64-0.09-3.27-0.07-4.91,0.01c-0.26,0.01-0.62,0.13-0.68-0.27c-0.05-0.29,0.1-0.6,0.42-0.63    c1.55-0.15,1.53-1.23,1.45-2.36c-0.02-0.28,0-0.56,0-0.84c0-1.54-0.76-1.95-2.14-1.14c-0.88,0.51-1.28,1.4-1.74,2.24    c-0.23,0.42-0.43,0.85-0.64,1.28c-0.77,1.57-2.14,2.18-3.81,1.73c-0.52-0.14-0.43-0.53-0.19-0.69c1.36-0.88,1.7-2.47,2.62-3.65    C490.17,410.09,490.8,409.58,491.72,409.18z M495.61,405.75c0-0.64-0.01-1.28,0-1.92c0.01-0.41-0.08-0.7-0.58-0.69    c-1.11,0.02-2.32-0.13-3.06,0.95c-0.63,0.91-0.69,1.98-0.19,2.96c0.6,1.17,1.76,1.21,2.91,1.26c0.77,0.03,0.98-0.31,0.93-1    C495.58,406.79,495.61,406.27,495.61,405.75z"/>
		<path class="st1" d="M258.56,408.14c0.6,0.2,1.02,0.32,1.41,0.48c1.05,0.45,1.81,1.13,1.89,2.38c0.09,1.35-0.33,2.42-1.53,3.13    c-1.26,0.74-2.66,0.8-4.05,0.87c-1.79,0.09-3.59,0.07-5.38,0.08c-0.28,0-0.71,0.21-0.76-0.29c-0.04-0.36,0.21-0.6,0.58-0.64    c1.3-0.13,1.4-0.99,1.37-2.05c-0.05-2.35-0.06-4.7,0-7.06c0.03-1.06-0.16-1.81-1.36-1.94c-0.35-0.04-0.62-0.25-0.59-0.62    c0.03-0.43,0.42-0.3,0.66-0.28c2.35,0.15,4.71-0.14,7.05,0.22c2.42,0.36,3.61,2.13,2.73,3.99    C260.18,407.21,259.35,407.51,258.56,408.14z M254.62,411.2c0,0.28,0.02,0.56,0,0.84c-0.15,1.88,0.45,1.95,2.13,1.86    c0.24-0.01,0.47-0.08,0.7-0.14c1.39-0.39,1.98-1.37,1.71-2.82c-0.26-1.4-1.79-2.29-3.84-2.04c-1.41,0.17-0.39,1.4-0.7,2.07    C254.6,411.03,254.62,411.12,254.62,411.2z M254.62,405.58c0,0.56-0.01,1.12,0,1.68c0,0.23-0.03,0.47,0.28,0.58    c0.56,0.21,2.46-0.4,2.83-0.99c0.56-0.89,0.62-1.86-0.04-2.68c-0.69-0.86-1.79-1.04-2.74-0.77c-0.7,0.2-0.2,1.12-0.32,1.7    C254.6,405.26,254.62,405.42,254.62,405.58z"/>
		<path class="st1" d="M354.51,408.62c2.5,0.45,3.22,2.3,3.9,4.17c0.22,0.61,0.4,1.22,1.16,1.38c0.31,0.07,0.49,0.33,0.45,0.63    c-0.05,0.4-0.41,0.27-0.67,0.29c-0.04,0-0.08-0.01-0.12-0.01c-3.66-0.02-2.93,0.01-3.79-2.83c-0.46-1.53-1.18-2.69-2.92-2.89    c-0.67-0.08-1.08,0.04-0.98,0.86c0.06,0.51,0.04,1.04,0.01,1.56c-0.08,1.14-0.08,2.19,1.42,2.4c0.29,0.04,0.49,0.28,0.47,0.61    c-0.03,0.44-0.4,0.32-0.64,0.31c-1.68-0.1-3.35-0.09-5.03,0c-0.25,0.01-0.61,0.15-0.71-0.22c-0.11-0.38,0.14-0.64,0.49-0.68    c1.4-0.16,1.51-1.07,1.48-2.23c-0.06-2.31-0.06-4.63,0-6.95c0.02-1.01-0.16-1.73-1.3-1.88c-0.38-0.05-0.76-0.22-0.67-0.67    c0.09-0.44,0.52-0.25,0.81-0.25c1.6-0.02,3.19-0.02,4.79,0c0.27,0,0.7-0.21,0.79,0.27c0.07,0.39-0.24,0.57-0.58,0.63    c-1.19,0.19-1.42,0.96-1.31,2c0.06,0.63,0.01,1.28,0.01,1.92c0.01,1.21,0.21,1.34,1.41,1.01c1.24-0.35,1.89-1.27,2.37-2.36    c0.27-0.62,0.49-1.26,0.76-1.88c0.24-0.56,0.6-1.04,1.13-1.36c0.7-0.42,1.49-0.47,2.18-0.13c0.57,0.28,0.36,0.93,0.23,1.41    c-0.2,0.76-0.51,1.43-1.53,1.31c-0.76-0.09-1.11,0.54-1.45,1.08C356.09,406.97,355.62,407.9,354.51,408.62z"/>
		<path class="st1" d="M286.44,408.6c2.25,0.56,3.11,2.22,3.72,4.12c0.21,0.65,0.42,1.3,1.23,1.47c0.29,0.06,0.47,0.33,0.39,0.65    c-0.1,0.39-0.45,0.21-0.7,0.24c-0.08,0.01-0.16-0.01-0.24-0.01c-2.77-0.04-2.8-0.03-3.57-2.65c-0.45-1.55-1.12-2.82-2.93-3.06    c-0.71-0.09-1.05,0.08-0.97,0.87c0.06,0.67,0.07,1.36,0,2.03c-0.11,1.02,0.15,1.72,1.28,1.87c0.36,0.05,0.62,0.29,0.57,0.65    c-0.07,0.47-0.49,0.3-0.78,0.29c-1.64-0.08-3.27-0.08-4.91,0c-0.25,0.01-0.61,0.14-0.67-0.28c-0.06-0.38,0.16-0.61,0.53-0.66    c1.24-0.15,1.45-0.93,1.41-2.04c-0.07-2.39-0.07-4.79,0-7.19c0.03-1.01-0.26-1.61-1.27-1.79c-0.38-0.07-0.75-0.22-0.65-0.68    c0.09-0.45,0.53-0.24,0.81-0.24c1.6-0.02,3.19-0.02,4.79,0c0.27,0,0.71-0.2,0.75,0.32c0.02,0.38-0.28,0.55-0.62,0.6    c-1.08,0.15-1.3,0.83-1.22,1.8c0.07,0.79,0.07,1.6,0,2.39c-0.07,0.86,0.39,0.93,1.02,0.81c1.09-0.2,1.91-0.81,2.39-1.81    c0.4-0.82,0.73-1.68,1.11-2.52c0.29-0.63,0.67-1.21,1.33-1.48c0.68-0.28,1.44-0.4,2.06,0.04c0.5,0.36,0.27,0.94,0.11,1.44    c-0.23,0.73-0.54,1.34-1.49,1.21c-0.65-0.09-1.03,0.35-1.32,0.86C288.01,406.83,287.41,407.77,286.44,408.6z"/>
		<path class="st1" d="M389.59,408.62c2.24,0.53,3.08,2.17,3.69,4.02c0.23,0.68,0.42,1.38,1.29,1.57c0.28,0.06,0.45,0.35,0.35,0.67    c-0.1,0.32-0.38,0.19-0.6,0.21c-0.04,0-0.08-0.01-0.12-0.01c-3.42-0.04-3.02,0.13-3.82-2.81c-0.42-1.53-1.17-2.71-2.92-2.91    c-0.61-0.07-1.01,0.02-0.94,0.78c0.05,0.55,0.03,1.12,0.01,1.68c-0.04,1.1-0.19,2.23,1.41,2.37c0.31,0.03,0.48,0.33,0.42,0.63    c-0.08,0.39-0.43,0.28-0.69,0.27c-1.68-0.09-3.35-0.09-5.03,0c-0.25,0.01-0.6,0.13-0.64-0.31c-0.03-0.32,0.13-0.57,0.45-0.6    c1.51-0.15,1.52-1.17,1.49-2.34c-0.05-2.28-0.06-4.55,0-6.83c0.03-1.02-0.2-1.72-1.3-1.89c-0.33-0.05-0.65-0.18-0.63-0.58    c0.02-0.53,0.46-0.33,0.73-0.33c1.64-0.02,3.27-0.01,4.91,0c0.25,0,0.62-0.15,0.71,0.24c0.08,0.37-0.18,0.62-0.53,0.66    c-1.24,0.14-1.39,0.94-1.3,1.97c0.06,0.67,0.07,1.36,0,2.03c-0.12,1.11,0.44,1.19,1.28,0.96c0.99-0.27,1.7-0.87,2.14-1.78    c0.38-0.79,0.69-1.61,1.05-2.41c0.27-0.59,0.61-1.13,1.19-1.46c0.7-0.4,1.49-0.46,2.18-0.1c0.55,0.29,0.35,0.9,0.2,1.41    c-0.23,0.77-0.53,1.43-1.55,1.3c-0.6-0.08-0.96,0.31-1.24,0.78C391.19,406.78,390.58,407.74,389.59,408.62z"/>
		<path class="st1" d="M456.67,413.31c-1.5,2.01-3.48,2.33-5.64,1.86c-2.49-0.55-3.31-3.32-1.6-5.22c1.19-1.33,2.84-1.7,4.46-2.12    c0.23-0.06,0.47-0.1,0.7-0.15c1.87-0.37,2.03-0.59,1.8-2.33c-0.22-1.62-1-2.3-2.51-2.27c-0.96,0.02-1.51,0.54-1.73,1.37    c-0.31,1.17-1.18,1.5-2.19,1.73c-0.64,0.15-0.9-0.11-0.85-0.74c0.04-0.54,0.29-0.98,0.65-1.38c1.66-1.88,4.64-2.69,7.01-1.87    c1.46,0.5,2.17,1.6,2.22,3.09c0.08,2.15,0.07,4.31,0.09,6.46c0.02,1.89,0.05,1.94,1.88,2.4c0.21,0.05,0.38,0.13,0.41,0.36    c0.05,0.37-0.23,0.46-0.48,0.59C459.28,415.87,457.64,415.23,456.67,413.31z M456.44,410.04c0-0.36,0-0.72,0-1.07    c0.01-0.38-0.12-0.64-0.55-0.56c-1.17,0.23-2.36,0.41-3.34,1.16c-0.96,0.74-1.19,1.77-0.95,2.89c0.17,0.79,0.66,1.36,1.51,1.49    c1.19,0.17,2.08-0.3,2.75-1.28C456.42,411.86,456.48,410.96,456.44,410.04z"/>
		<path class="st1" d="M301.5,413.39c-1.43,1.95-3.4,2.25-5.57,1.77c-2.4-0.54-3.25-3.08-1.73-5.04c0.64-0.82,1.5-1.33,2.45-1.65    c0.94-0.32,1.91-0.57,2.88-0.78c1.91-0.42,2.16-0.77,1.73-2.59c-0.39-1.64-1.44-2.33-2.97-1.97c-0.72,0.17-1.06,0.71-1.24,1.34    c-0.31,1.09-1.1,1.46-2.09,1.69c-0.92,0.21-1.08-0.22-0.92-0.96c0.1-0.48,0.37-0.87,0.7-1.23c1.66-1.82,4.76-2.59,7.06-1.73    c1.52,0.57,2.07,1.82,2.13,3.3c0.08,1.95,0.05,3.91,0.06,5.87c0,0.44-0.02,0.88,0.03,1.32c0.11,0.87,0.43,1.56,1.51,1.44    c0.33-0.04,0.69-0.06,0.75,0.37c0.07,0.43-0.33,0.48-0.61,0.59C304.02,415.77,302.86,415.3,301.5,413.39z M301.4,410.08    c0-0.46,0-0.82,0-1.17c0-0.31-0.05-0.58-0.45-0.51c-1.36,0.25-2.78,0.4-3.81,1.48c-0.97,1.02-0.95,2.86,0,3.67    c0.92,0.79,2.58,0.48,3.48-0.66C301.29,412.04,301.48,411.04,301.4,410.08z"/>
		<path class="st1" d="M369.73,413.34c-1.38,1.95-3.27,2.2-5.3,1.9c-1.2-0.18-2.22-0.72-2.58-2.01c-0.37-1.34-0.07-2.52,0.92-3.52    c0.61-0.61,1.35-1,2.15-1.27c0.9-0.3,1.83-0.56,2.76-0.76c1.92-0.42,2.12-0.65,1.85-2.41c-0.25-1.63-1.16-2.35-2.7-2.2    c-0.9,0.09-1.36,0.67-1.59,1.42c-0.26,0.86-0.77,1.37-1.65,1.52c-0.41,0.07-0.9,0.45-1.21,0.01c-0.31-0.44-0.16-1.02,0.13-1.47    c1.06-1.62,2.67-2.35,4.5-2.62c0.66-0.1,1.36-0.05,2.03,0.05c1.98,0.3,3.04,1.48,3.09,3.49c0.05,1.95,0,3.91,0.02,5.86    c0.01,0.55,0.06,1.11,0.15,1.66c0.13,0.75,0.53,1.24,1.39,1.16c0.31-0.03,0.7-0.12,0.79,0.31c0.1,0.49-0.34,0.56-0.67,0.68    C372.16,415.77,370.89,415.24,369.73,413.34z M369.61,409.93c0.01-1.51,0-1.59-0.54-1.51c-1.22,0.18-2.45,0.4-3.45,1.2    c-0.96,0.77-1.1,1.82-0.85,2.93c0.17,0.74,0.66,1.28,1.46,1.4c1.18,0.17,2.09-0.28,2.76-1.27    C369.56,411.84,369.62,410.9,369.61,409.93z"/>
		<path class="st1" d="M445.76,447.18c2.21,0.46,3.09,2.01,3.71,3.83c0.26,0.78,0.42,1.66,1.48,1.84c0.24,0.04,0.39,0.29,0.3,0.57    c-0.1,0.32-0.38,0.21-0.6,0.2c-0.08,0-0.16-0.05-0.24-0.04c-2.45,0.34-3.43-0.94-3.88-3.19c-0.37-1.82-1.39-2.49-2.86-2.57    c-0.61-0.03-0.9,0.15-0.88,0.79c0.02,0.72,0.05,1.44-0.01,2.16c-0.07,0.96,0.13,1.65,1.23,1.81c0.37,0.05,0.69,0.23,0.62,0.71    c-0.08,0.6-0.53,0.39-0.83,0.34c-1.6-0.25-3.18-0.22-4.78,0.01c-0.29,0.04-0.7,0.18-0.76-0.31c-0.05-0.4,0.25-0.55,0.6-0.6    c1.23-0.16,1.46-0.92,1.43-2.04c-0.07-2.51-0.06-5.03,0-7.55c0.02-0.97-0.31-1.52-1.27-1.69c-0.35-0.06-0.81-0.11-0.75-0.59    c0.07-0.56,0.56-0.32,0.87-0.28c1.56,0.22,3.1,0.2,4.66,0c0.27-0.04,0.69-0.26,0.8,0.22c0.12,0.5-0.3,0.59-0.65,0.66    c-0.91,0.18-1.23,0.73-1.17,1.63c0.06,0.96,0.04,1.92,0,2.88c-0.03,0.68,0.29,0.83,0.87,0.74c1.21-0.17,2.07-0.83,2.59-1.9    c0.39-0.79,0.68-1.62,1.03-2.42c0.26-0.59,0.59-1.14,1.14-1.51c0.68-0.45,1.44-0.55,2.17-0.22c0.65,0.29,0.36,0.89,0.26,1.38    c-0.17,0.78-0.45,1.45-1.48,1.37c-0.75-0.06-1.12,0.51-1.45,1.08C447.35,445.45,446.79,446.41,445.76,447.18z"/>
		<path class="st1" d="M280.46,447.17c2.19,0.46,3.08,1.95,3.7,3.74c0.28,0.8,0.41,1.75,1.52,1.95c0.25,0.04,0.37,0.3,0.29,0.57    c-0.08,0.26-0.3,0.22-0.49,0.2c-0.12-0.01-0.24-0.07-0.35-0.05c-2.46,0.34-3.42-0.96-3.88-3.2c-0.37-1.81-1.4-2.49-2.87-2.56    c-0.62-0.03-0.89,0.17-0.87,0.8c0.02,0.72,0.05,1.44-0.01,2.16c-0.08,0.96,0.15,1.65,1.24,1.8c0.38,0.05,0.68,0.24,0.61,0.72    c-0.09,0.6-0.54,0.38-0.84,0.33c-1.56-0.23-3.1-0.22-4.66,0c-0.3,0.04-0.78,0.27-0.86-0.3c-0.06-0.4,0.26-0.55,0.61-0.59    c1.23-0.17,1.45-0.94,1.42-2.05c-0.07-2.43-0.06-4.87,0-7.31c0.03-1.07-0.22-1.8-1.39-1.95c-0.32-0.04-0.69-0.16-0.63-0.57    c0.06-0.49,0.48-0.32,0.77-0.28c1.59,0.24,3.18,0.23,4.78,0.01c0.27-0.04,0.68-0.25,0.8,0.23c0.1,0.41-0.22,0.58-0.55,0.62    c-1.14,0.17-1.34,0.91-1.28,1.91c0.06,0.88,0.04,1.76,0,2.64c-0.03,0.69,0.31,0.82,0.88,0.73c1.21-0.17,2.07-0.84,2.59-1.91    c0.44-0.89,0.77-1.84,1.2-2.74c0.42-0.87,1.04-1.53,2.1-1.55c0.58-0.01,1.27-0.13,1.42,0.71c0.15,0.79-0.52,2.16-1.14,2.13    c-1.26-0.07-1.75,0.77-2.24,1.65C281.88,445.78,281.38,446.5,280.46,447.17z"/>
		<path class="st1" d="M270.29,401.91c3.95,0.01,6.65,2.74,6.64,6.73c-0.01,3.77-2.99,6.71-6.79,6.7c-3.93-0.02-6.66-2.79-6.65-6.75    C263.51,404.81,266.47,401.9,270.29,401.91z M274.05,409.36c-0.11-1.62-0.39-3.54-1.72-5.13c-0.85-1.02-1.97-1.33-3.23-1.08    c-1.24,0.25-2.1,1.03-2.41,2.24c-0.65,2.5-0.33,4.91,1.02,7.13c0.61,1,1.51,1.61,2.76,1.62    C272.7,414.15,274.06,412.47,274.05,409.36z"/>
		<path class="st1" d="M396.63,408.66c0-3.85,2.87-6.75,6.69-6.76c3.97-0.01,6.72,2.71,6.74,6.65c0.02,3.76-2.97,6.77-6.73,6.78    C399.37,415.34,396.63,412.61,396.63,408.66z M399.51,407.65c0.04,1.82,0.34,3.57,1.45,5.08c0.8,1.1,1.89,1.58,3.23,1.37    c1.3-0.2,2.23-0.96,2.59-2.2c0.81-2.77,0.41-5.41-1.37-7.68c-1.58-2.02-4.76-1.35-5.59,1.07    C399.55,406.05,399.45,406.85,399.51,407.65z"/>
		<path class="st1" d="M466.25,447.16c0.02,3.75-2.88,6.74-6.59,6.77c-3.95,0.04-6.75-2.67-6.82-6.59    c-0.06-3.76,2.92-6.82,6.67-6.84C463.47,440.49,466.23,443.21,466.25,447.16z M463.39,448.17c-0.07-1.98-0.39-3.9-1.81-5.42    c-1.76-1.87-4.84-1.17-5.55,1.29c-0.69,2.4-0.36,4.75,0.9,6.9c0.68,1.16,1.72,1.87,3.15,1.78c1.36-0.09,2.31-0.78,2.9-1.99    C463.37,449.92,463.4,449.05,463.39,448.17z"/>
		<path class="st1" d="M476.59,446.78c0.64,0.22,1.13,0.34,1.59,0.55c1.02,0.44,1.71,1.18,1.77,2.34c0.07,1.2-0.32,2.19-1.38,2.85    c-1.01,0.63-2.14,0.86-3.3,0.92c-2.11,0.11-4.23-0.12-6.33,0.22c-0.26,0.04-0.6,0.14-0.69-0.25c-0.09-0.4,0.2-0.6,0.54-0.63    c1.32-0.14,1.51-0.97,1.48-2.11c-0.07-2.35-0.06-4.7,0-7.06c0.03-1.06-0.18-1.8-1.38-1.95c-0.3-0.04-0.69-0.13-0.64-0.56    c0.05-0.48,0.47-0.34,0.76-0.33c2.27,0.05,4.55-0.18,6.81,0.13c1.41,0.19,2.67,0.71,3.01,2.29c0.34,1.59-0.53,2.56-1.83,3.26    C476.91,446.49,476.83,446.59,476.59,446.78z M472.7,449.78c0,0.56,0,1.12,0,1.67c0,0.39,0.12,0.72,0.51,0.85    c1.17,0.41,2.3,0.21,3.32-0.42c0.92-0.58,0.86-1.57,0.71-2.48c-0.22-1.33-1.97-2.22-3.91-1.9c-1.26,0.2-0.38,1.29-0.62,1.93    C472.66,449.52,472.7,449.66,472.7,449.78z M472.7,444.06c0,0.6-0.01,1.19,0,1.79c0,0.27-0.03,0.54,0.35,0.65    c0.69,0.19,2.42-0.36,2.81-1c0.56-0.92,0.6-1.89,0.02-2.82c-0.38-0.61-2.22-1.24-2.82-0.92c-0.73,0.39-0.22,1.14-0.35,1.71    C472.66,443.65,472.7,443.86,472.7,444.06z"/>
		<path class="st1" d="M371.22,451.68c-1.21,1.77-2.96,2.18-4.94,1.99c-1.52-0.15-2.65-0.93-2.96-2.06    c-0.39-1.45,0.12-2.89,1.36-3.82c0.61-0.46,1.3-0.78,2.03-1c0.84-0.26,1.69-0.48,2.54-0.68c1.88-0.44,2.03-0.64,1.73-2.49    c-0.25-1.54-1.2-2.29-2.64-2.13c-0.93,0.1-1.46,0.68-1.66,1.49c-0.28,1.17-1.17,1.4-2.13,1.6c-0.67,0.14-0.86-0.19-0.79-0.79    c0.07-0.64,0.42-1.12,0.86-1.53c1.67-1.55,3.62-2.29,5.92-1.9c1.95,0.33,2.98,1.5,3.04,3.55c0.06,2.03,0.01,4.07,0.04,6.1    c0.01,0.55,0.07,1.12,0.2,1.65c0.17,0.74,0.59,1.25,1.45,0.97c0.31-0.1,0.55-0.16,0.67,0.21c0.12,0.37-0.2,0.47-0.44,0.6    C373.94,454.24,372.38,453.62,371.22,451.68z M371.15,448.23c-0.21-0.4,0.38-1.42-0.4-1.38c-1.56,0.09-3.2,0.36-4.22,1.81    c-0.7,0.99-0.51,2.71,0.33,3.39c0.92,0.75,2.37,0.53,3.31-0.52C370.98,450.61,371.16,449.49,371.15,448.23z"/>
		<path class="st1" d="M308.84,451.69c-1.24,1.83-3.06,2.19-5.06,1.96c-1.3-0.15-2.46-0.68-2.8-2.06c-0.35-1.4-0.04-2.7,1.16-3.66    c0.99-0.79,2.16-1.17,3.37-1.48c0.46-0.12,0.92-0.25,1.39-0.35c1.86-0.42,2.02-0.64,1.71-2.5c-0.25-1.53-1.21-2.28-2.66-2.12    c-0.93,0.11-1.45,0.69-1.65,1.51c-0.28,1.17-1.19,1.38-2.14,1.59c-0.69,0.15-0.84-0.22-0.77-0.81c0.07-0.64,0.43-1.12,0.87-1.53    c1.68-1.55,3.63-2.29,5.92-1.89c1.95,0.34,2.97,1.5,3.03,3.56c0.06,2.03,0.01,4.07,0.04,6.1c0.01,0.55,0.07,1.12,0.2,1.65    c0.18,0.74,0.6,1.24,1.46,0.95c0.32-0.11,0.56-0.13,0.66,0.23c0.1,0.37-0.21,0.47-0.46,0.59    C311.56,454.23,310.04,453.63,308.84,451.69z M308.78,448.17c-0.25-0.37,0.45-1.38-0.46-1.33c-1.36,0.07-2.77,0.35-3.82,1.41    c-1,1.01-1.03,2.93-0.06,3.77c0.98,0.86,2.62,0.54,3.55-0.7C308.66,450.4,308.79,449.35,308.78,448.17z"/>
		<path class="st1" d="M432.39,451.64c-1.28,1.91-3.08,2.22-5.04,2.01c-1.3-0.14-2.41-0.67-2.84-2.02    c-0.44-1.38,0.07-2.82,1.24-3.75c0.83-0.66,1.8-1.01,2.8-1.3c0.65-0.19,1.31-0.35,1.97-0.5c1.71-0.38,1.8-0.48,1.68-1.97    c-0.13-1.71-0.84-2.54-2.2-2.63c-1.12-0.07-1.86,0.43-2.16,1.48c-0.24,0.88-0.78,1.34-1.65,1.5c-0.38,0.07-0.84,0.34-1.13,0.01    c-0.35-0.39-0.16-0.9,0.06-1.34c1.2-2.48,5.97-3.73,8.22-2.15c1.04,0.73,1.38,1.83,1.4,3.03c0.03,2.03,0.02,4.07,0.02,6.1    c0,0.6,0.05,1.2,0.26,1.77c0.21,0.58,0.6,0.95,1.27,0.81c0.3-0.06,0.64-0.34,0.78,0.14c0.15,0.51-0.32,0.56-0.64,0.68    C434.77,454.16,433.51,453.61,432.39,451.64z M432.31,448.1c-0.36-0.27,0.49-1.31-0.45-1.27c-1.36,0.07-2.77,0.35-3.82,1.41    c-1,1.01-1.03,2.93-0.06,3.77c0.98,0.86,2.62,0.54,3.55-0.7C432.19,450.4,432.33,449.35,432.31,448.1z"/>
		<path class="st1" d="M489.72,451.69c-1.21,1.78-2.97,2.17-4.94,1.98c-1.52-0.15-2.65-0.94-2.95-2.06    c-0.39-1.45,0.12-2.89,1.36-3.82c0.61-0.46,1.3-0.78,2.03-1c0.84-0.25,1.69-0.48,2.54-0.68c1.87-0.43,2.03-0.64,1.73-2.49    c-0.25-1.54-1.2-2.29-2.65-2.13c-0.93,0.1-1.46,0.68-1.66,1.5c-0.28,1.17-1.17,1.39-2.13,1.6c-0.67,0.14-0.86-0.19-0.79-0.8    c0.07-0.64,0.42-1.12,0.86-1.53c1.67-1.55,3.62-2.29,5.92-1.9c1.95,0.33,2.98,1.5,3.04,3.55c0.06,2.03,0.01,4.07,0.04,6.1    c0.01,0.55,0.07,1.12,0.2,1.65c0.17,0.74,0.59,1.25,1.46,0.97c0.31-0.1,0.55-0.15,0.67,0.21c0.12,0.37-0.2,0.47-0.44,0.6    C492.44,454.24,490.89,453.63,489.72,451.69z M489.65,448.22c0.01-1.41-0.01-1.51-0.49-1.42c-1.4,0.26-2.86,0.4-3.89,1.56    c-0.92,1.03-0.88,2.88,0.08,3.68c0.97,0.81,2.54,0.51,3.47-0.66C489.53,450.44,489.66,449.35,489.65,448.22z"/>
		<path class="st1" d="M259.36,447.52c-0.08-4.05,3.16-7.44,6.95-7.24c2.87,0.15,5.02,2.69,4.75,5.55c-0.06,0.67-0.5,0.61-0.93,0.63    c-2.27,0.1-4.55,0.24-6.82,0.26c-0.91,0.01-1.21,0.26-1.05,1.18c0.32,1.79,1.06,3.28,2.83,4c1.77,0.73,3.36,0.3,4.75-0.97    c0.32-0.29,0.65-0.72,1.1-0.24c0.41,0.45-0.11,0.72-0.34,0.98c-1.78,2.08-4.82,2.85-7.42,1.91    C260.79,452.73,259.42,450.53,259.36,447.52z M264.51,445.59c1.14-0.06,1.97-0.11,2.81-0.14c0.66-0.03,0.88-0.32,0.81-0.99    c-0.16-1.55-1.28-2.84-2.65-2.97c-1.45-0.13-2.67,0.8-3.14,2.39c-0.5,1.69-0.43,1.77,1.28,1.71    C264.01,445.58,264.41,445.59,264.51,445.59z"/>
		<path class="st1" d="M251.75,440.75c1.56,0,3.12-0.01,4.67,0.01c0.3,0,0.79-0.22,0.85,0.35c0.05,0.43-0.35,0.51-0.65,0.55    c-1.03,0.17-1.32,0.75-1.3,1.77c0.07,2.51,0.07,5.03,0,7.54c-0.03,1.03,0.31,1.59,1.31,1.76c0.37,0.06,0.76,0.14,0.68,0.64    c-0.08,0.47-0.49,0.31-0.78,0.3c-1.64-0.1-3.27-0.09-4.91,0.01c-0.26,0.02-0.61,0.12-0.7-0.26c-0.09-0.4,0.18-0.61,0.53-0.65    c1.21-0.14,1.37-0.91,1.35-1.96c-0.06-2.63-0.04-5.27-0.01-7.9c0.01-0.72-0.2-0.95-0.94-0.96c-2.69-0.04-2.67-0.07-2.75,2.66    c-0.07,2.32-0.25,4.63-1.21,6.79c-0.34,0.77-0.71,1.54-1.38,2.08c-0.54,0.43-1.15,0.85-1.73,0.02c-0.57-0.82-0.55-2.07,0.15-2.34    c2.16-0.84,2.56-2.67,2.75-4.64c0.11-1.11,0.13-2.23,0.21-3.34c0.06-0.78-0.16-1.32-1.01-1.5c-0.29-0.06-0.69-0.11-0.65-0.55    c0.05-0.59,0.54-0.35,0.84-0.36C248.63,440.73,250.19,440.75,251.75,440.75z"/>
		<path class="st1" d="M337.96,415.09c-1,0-1.99,0.01-2.99-0.01c-0.25,0-0.6,0.15-0.68-0.26c-0.06-0.31,0.11-0.61,0.41-0.64    c1.66-0.17,1.55-1.33,1.53-2.53c-0.04-2.27-0.06-4.55,0.01-6.82c0.03-0.95-0.23-1.54-1.2-1.71c-0.36-0.06-0.77-0.15-0.74-0.61    c0.04-0.6,0.55-0.31,0.84-0.31c1.67-0.03,3.35-0.03,5.02-0.01c0.27,0,0.7-0.22,0.75,0.3c0.03,0.32-0.19,0.55-0.5,0.57    c-1.62,0.14-1.66,1.24-1.62,2.49c0.06,2,0.02,2,2.01,2.03c0.48,0.01,0.96,0.04,1.43,0.1c2.03,0.25,3.19,1.28,3.34,2.98    c0.18,2.01-0.78,3.45-2.75,4.07c-0.8,0.25-1.63,0.35-2.48,0.34c-0.8-0.01-1.59,0-2.39,0    C337.96,415.07,337.96,415.08,337.96,415.09z M338.82,411.3c0,0.67,0.01,1.35,0,2.02c-0.01,0.4,0.15,0.52,0.55,0.58    c2.3,0.31,3.71-1.14,3.28-3.39c-0.26-1.32-1.4-1.99-3.18-1.72c-1.21,0.18-0.42,1.19-0.63,1.8    C338.76,410.81,338.82,411.06,338.82,411.3z"/>
		<path class="st1" d="M313.5,402.16c1.52,0,3.04,0.08,4.55-0.03c1.14-0.08,1.63,0.33,1.71,1.42c0.03,0.47,0.17,0.94,0.25,1.41    c0.05,0.29,0.3,0.64-0.16,0.81c-0.44,0.17-0.69-0.11-0.83-0.46c-0.61-1.57-1.93-1.86-3.4-1.93c-0.63-0.03-0.83,0.2-0.82,0.82    c0.02,2.88,0.04,5.75,0,8.63c-0.01,0.86,0.49,1.1,1.14,1.27c0.41,0.11,0.84,0.24,0.72,0.75c-0.1,0.42-0.53,0.24-0.82,0.23    c-1.6-0.09-3.19-0.07-4.79,0.01c-0.25,0.01-0.61,0.14-0.71-0.24c-0.1-0.38,0.15-0.64,0.5-0.68c1.36-0.18,1.41-1.1,1.38-2.19    c-0.05-2.55-0.04-5.11,0-7.67c0.01-0.75-0.23-0.98-0.95-0.93c-1.43,0.1-2.69,0.42-3.3,1.92c-0.14,0.36-0.36,0.66-0.81,0.48    c-0.44-0.17-0.19-0.54-0.19-0.83c0-0.04,0.02-0.08,0.02-0.12c0.66-2.88-0.12-2.78,3.28-2.61c1.08,0.05,2.16,0.01,3.24,0.01    C313.5,402.21,313.5,402.18,313.5,402.16z"/>
		<path class="st1" d="M321.51,408.9c0-4.95,4.5-8.25,8.97-6.55c0.41,0.15,0.81,0.35,1.16,0.6c0.6,0.43,1.14,0.98,0.99,1.78    c-0.11,0.63-0.81,0.56-1.29,0.69c-0.74,0.2-1.31,0.01-1.69-0.73c-0.53-1.03-1.3-1.74-2.57-1.55c-1.29,0.19-2.08,1.03-2.43,2.21    c-0.59,2.01-0.56,4.04,0.4,5.95c1.18,2.35,3.8,3.1,6.13,1.84c0.14-0.08,0.28-0.15,0.42-0.24c0.33-0.2,0.66-0.34,0.97,0.01    c0.39,0.44-0.06,0.67-0.3,0.86c-2.24,1.75-4.75,2.09-7.33,1.05c-2.41-0.97-3.39-3.01-3.43-5.54    C321.51,409.14,321.51,409.02,321.51,408.9z"/>
		<path class="st1" d="M294.08,453.7c-2.86,0.01-4.89-1.31-5.8-3.75c-1.02-2.76-0.2-6,1.99-7.85c2.11-1.79,4.98-2.13,7.25-0.83    c0.27,0.16,0.55,0.34,0.76,0.57c0.51,0.55,1.16,1.18,0.45,1.92c-0.61,0.64-2.12,0.44-2.54-0.26c-0.68-1.14-1.46-2.06-2.95-1.7    c-1.57,0.39-2.17,1.59-2.46,3.06c-0.3,1.54-0.14,3.03,0.42,4.47c1.03,2.68,3.86,3.69,6.4,2.32c0.14-0.08,0.28-0.16,0.41-0.24    c0.32-0.19,0.66-0.4,0.93,0.03c0.29,0.45-0.14,0.65-0.39,0.86C297.24,453.33,295.72,453.71,294.08,453.7z"/>
		<path class="st1" d="M482.61,415.08c-0.84,0-1.67,0.01-2.51,0c-0.25,0-0.6,0.15-0.68-0.26c-0.06-0.32,0.12-0.61,0.41-0.63    c1.71-0.14,1.53-1.34,1.52-2.53c-0.03-2.15-0.03-4.31,0-6.46c0.01-1-0.23-1.74-1.37-1.85c-0.35-0.03-0.64-0.13-0.6-0.56    c0.04-0.4,0.36-0.38,0.63-0.38c1.05,0,2.06-0.19,3.07-0.44c0.76-0.19,1.12,0.07,1.03,0.92c-0.35,3.3-0.05,6.62-0.17,9.92    c-0.04,0.95,0.57,1.13,1.24,1.3c0.37,0.1,0.76,0.16,0.69,0.64c-0.08,0.57-0.55,0.3-0.86,0.31c-0.8,0.02-1.6,0.01-2.39,0.01    C482.61,415.07,482.61,415.08,482.61,415.08z"/>
		<path class="st1" d="M482.67,398.7c-1.02,0.01-1.82-0.79-1.81-1.81c0.02-0.96,0.79-1.75,1.74-1.77c1.01-0.02,1.8,0.79,1.79,1.82    C484.38,397.96,483.66,398.69,482.67,398.7z"/>
		<path class="st2" d="M186.73,416.88c0.37,1.87,0.74,3.73,1.09,5.6c1.62,8.5,3.22,17,4.85,25.5c0.49,2.58,0.51,2.58-2.17,2.58    c-3.04,0-6.08-0.04-9.11,0.02c-1.09,0.02-1.28-0.35-1.08-1.34c1.95-10.15,3.87-20.3,5.8-30.45c0.12-0.62,0.22-1.24,0.33-1.85    C186.53,416.92,186.63,416.9,186.73,416.88z"/>
		<path class="st2" d="M53.63,416.58c0.41,2.1,0.77,3.89,1.11,5.67c1.4,7.45,2.8,14.89,4.2,22.34c0.31,1.65,0.57,3.3,0.94,4.94    c0.17,0.75,0.02,1.04-0.76,1.03c-3.72-0.01-7.43-0.02-11.15,0c-0.7,0-0.93-0.25-0.8-0.94c2.07-10.84,4.13-21.68,6.19-32.52    C53.37,417.04,53.42,416.97,53.63,416.58z"/>
		<path class="st2" d="M53.3,455.91c3.39,0,6.79,0.03,10.18-0.02c1.06-0.02,1.22,0.29,0.88,1.25c-1.58,4.52-6.21,7.77-11.16,7.76    c-4.81-0.01-9.35-3.33-10.92-7.91c-0.32-0.94-0.01-1.1,0.84-1.09C46.51,455.92,49.9,455.91,53.3,455.91z"/>
		<path class="st2" d="M186.74,455.91c3.36,0,6.71,0.01,10.07-0.01c0.84-0.01,1.19,0.16,0.86,1.1c-1.56,4.45-6.14,7.85-10.73,7.9    c-5.02,0.06-9.52-2.94-11.23-7.47c-0.54-1.44-0.48-1.53,1.08-1.53C180.11,455.91,183.42,455.91,186.74,455.91z"/>
		<path class="st2" d="M186.63,388.65c2.71,0.03,5.08,2.42,5.02,5.07c-0.07,2.88-2.3,5.1-5.11,5.07c-2.8-0.03-5.05-2.35-5.02-5.17    C181.55,390.93,183.92,388.62,186.63,388.65z"/>
		<path class="st2" d="M48.53,393.69c-0.01-2.79,2.2-5.01,5.02-5.03c2.73-0.02,5.07,2.38,5.05,5.18c-0.02,2.67-2.3,4.93-5.01,4.96    C50.78,398.83,48.54,396.56,48.53,393.69z"/>
		<path class="st2" d="M119.99,345.26c-2.42-0.02-4.43-2.1-4.42-4.57c0.01-2.27,2.21-4.42,4.51-4.39c2.41,0.03,4.49,2.12,4.5,4.54    C124.58,343.23,122.45,345.28,119.99,345.26z"/>
		<path class="st0" d="M239.04,444.94c0.06,1.1-0.11,2.15-0.47,3.18c-0.87,2.43-2.53,3.98-5.11,4.31c-2.52,0.32-4.59-0.66-5.96-2.78    c-1.95-3.03-2.42-6.42-1.67-9.89c0.57-2.62,2.33-4.28,5.01-4.68c2.63-0.39,4.8,0.58,6.32,2.79    C238.61,440,238.96,442.44,239.04,444.94z"/>
		<path class="st2" d="M350.86,448.28c0-0.86,0.01-1.54,0-2.22c-0.01-0.87,0.27-1.65,0.75-2.35c1.65-2.44,4.37-2.29,5.67,0.35    c1.03,2.1,1.05,4.31,0.25,6.5c-0.44,1.2-1.31,2.03-2.63,2.15c-1.53,0.14-2.92-0.38-3.81-1.58    C350.46,450.28,350.99,449.11,350.86,448.28z"/>
		<path class="st2" d="M220.49,406.5c0.96-2.43,1.83-4.64,2.82-7.14c0.9,2.37,1.71,4.48,2.5,6.6c0.17,0.45-0.12,0.55-0.5,0.54    C223.77,406.49,222.22,406.5,220.49,406.5z"/>
		<path class="st0" d="M238.01,413.74c1.77-3,1.98-6.16,1.97-9.35c0-0.75,0.24-1.02,1.04-1.03c2.84-0.03,2.84-0.06,2.84,2.75    c0,2.23-0.03,4.46,0.01,6.69c0.01,0.73-0.22,0.97-0.95,0.95C241.34,413.71,239.76,413.74,238.01,413.74z"/>
		<path class="st0" d="M334.25,452.26c1.92-2.93,1.97-6.1,2.09-9.23c0.03-0.79,0.18-1.09,1.05-1.09c2.86,0.01,2.86-0.03,2.86,2.83    c0,2.19-0.03,4.38,0.02,6.57c0.01,0.72-0.18,0.97-0.93,0.94C337.71,452.22,336.08,452.26,334.25,452.26z"/>
		<path class="st2" d="M495.61,405.75c0,0.52-0.03,1.04,0.01,1.56c0.05,0.69-0.16,1.03-0.93,1c-1.15-0.05-2.31-0.09-2.91-1.26    c-0.51-0.98-0.44-2.05,0.19-2.96c0.74-1.08,1.94-0.93,3.06-0.95c0.5-0.01,0.59,0.29,0.58,0.69    C495.61,404.47,495.61,405.11,495.61,405.75z"/>
		<path class="st0" d="M254.62,411.2c0-0.08-0.03-0.17,0-0.24c0.31-0.67-0.72-1.9,0.7-2.07c2.05-0.25,3.57,0.65,3.84,2.04    c0.27,1.44-0.32,2.42-1.71,2.82c-0.23,0.06-0.46,0.13-0.7,0.14c-1.68,0.09-2.29,0.03-2.13-1.86    C254.64,411.76,254.62,411.48,254.62,411.2z"/>
		<path class="st2" d="M254.62,405.58c0-0.16-0.03-0.32,0-0.48c0.12-0.58-0.38-1.5,0.32-1.7c0.95-0.27,2.05-0.09,2.74,0.77    c0.66,0.82,0.6,1.79,0.04,2.68c-0.37,0.59-2.26,1.2-2.83,0.99c-0.31-0.12-0.27-0.36-0.28-0.58    C254.62,406.7,254.62,406.14,254.62,405.58z"/>
		<path class="st2" d="M456.44,410.04c0.03,0.93-0.03,1.82-0.58,2.63c-0.67,0.98-1.56,1.45-2.75,1.28c-0.86-0.12-1.35-0.7-1.51-1.49    c-0.24-1.12-0.01-2.15,0.95-2.89c0.98-0.76,2.18-0.93,3.34-1.16c0.43-0.09,0.56,0.18,0.55,0.56    C456.44,409.32,456.44,409.68,456.44,410.04z"/>
		<path class="st2" d="M301.4,410.08c0.08,0.96-0.1,1.96-0.78,2.82c-0.9,1.14-2.56,1.45-3.48,0.66c-0.95-0.81-0.97-2.65,0-3.67    c1.03-1.08,2.44-1.23,3.81-1.48c0.4-0.07,0.45,0.2,0.45,0.51C301.39,409.26,301.4,409.62,301.4,410.08z"/>
		<path class="st2" d="M369.61,409.93c0,0.96-0.05,1.91-0.62,2.75c-0.67,0.98-1.57,1.44-2.76,1.27c-0.8-0.12-1.29-0.66-1.46-1.4    c-0.25-1.1-0.11-2.16,0.85-2.93c1-0.8,2.23-1.02,3.45-1.2C369.61,408.34,369.62,408.43,369.61,409.93z"/>
		<path class="st0" d="M274.05,409.36c0.02,3.12-1.35,4.79-3.59,4.78c-1.25,0-2.15-0.62-2.76-1.62c-1.35-2.22-1.67-4.63-1.02-7.13    c0.31-1.21,1.17-1.99,2.41-2.24c1.26-0.25,2.38,0.06,3.23,1.08C273.66,405.82,273.94,407.74,274.05,409.36z"/>
		<path class="st0" d="M399.51,407.65c-0.05-0.81,0.04-1.6,0.3-2.36c0.83-2.42,4.01-3.09,5.59-1.07c1.78,2.27,2.19,4.92,1.37,7.68    c-0.36,1.24-1.29,2-2.59,2.2c-1.34,0.2-2.43-0.27-3.23-1.37C399.85,411.22,399.54,409.47,399.51,407.65z"/>
		<path class="st0" d="M463.39,448.17c0.02,0.88-0.02,1.76-0.41,2.57c-0.59,1.21-1.54,1.9-2.9,1.99c-1.44,0.09-2.48-0.62-3.15-1.78    c-1.26-2.16-1.58-4.5-0.9-6.9c0.7-2.46,3.79-3.16,5.55-1.29C463,444.26,463.32,446.18,463.39,448.17z"/>
		<path class="st2" d="M472.7,449.78c0-0.12-0.04-0.25,0-0.36c0.25-0.64-0.63-1.72,0.62-1.93c1.94-0.32,3.68,0.57,3.91,1.9    c0.15,0.92,0.22,1.9-0.71,2.48c-1.01,0.64-2.14,0.83-3.32,0.42c-0.4-0.14-0.51-0.46-0.51-0.85    C472.7,450.89,472.7,450.33,472.7,449.78z"/>
		<path class="st2" d="M472.7,444.06c0-0.2-0.04-0.41,0.01-0.6c0.13-0.57-0.38-1.32,0.35-1.71c0.6-0.32,2.44,0.32,2.82,0.92    c0.58,0.93,0.54,1.9-0.02,2.82c-0.38,0.64-2.12,1.19-2.81,1c-0.39-0.11-0.35-0.38-0.35-0.65    C472.69,445.25,472.7,444.65,472.7,444.06z"/>
		<path class="st2" d="M371.15,448.23c0.01,1.26-0.16,2.39-0.99,3.31c-0.93,1.04-2.39,1.26-3.31,0.52c-0.84-0.68-1.03-2.4-0.33-3.39    c1.03-1.45,2.66-1.73,4.22-1.81C371.53,446.8,370.94,447.82,371.15,448.23z"/>
		<path class="st2" d="M308.78,448.17c0.02,1.18-0.12,2.23-0.8,3.14c-0.93,1.24-2.56,1.56-3.55,0.7c-0.96-0.84-0.94-2.76,0.06-3.77    c1.05-1.06,2.46-1.34,3.82-1.41C309.23,446.79,308.53,447.79,308.78,448.17z"/>
		<path class="st2" d="M432.31,448.1c0.02,1.25-0.12,2.3-0.8,3.2c-0.93,1.24-2.56,1.56-3.55,0.7c-0.96-0.84-0.94-2.76,0.06-3.77    c1.05-1.06,2.46-1.34,3.82-1.41C432.8,446.79,431.96,447.83,432.31,448.1z"/>
		<path class="st2" d="M489.65,448.22c0.02,1.13-0.12,2.22-0.85,3.15c-0.93,1.18-2.49,1.47-3.47,0.66c-0.95-0.79-1-2.65-0.08-3.68    c1.04-1.15,2.5-1.3,3.89-1.56C489.63,446.71,489.65,446.81,489.65,448.22z"/>
		<path class="st2" d="M264.51,445.59c-0.1,0-0.5-0.01-0.9,0c-1.71,0.06-1.78-0.02-1.28-1.71c0.47-1.59,1.7-2.53,3.14-2.39    c1.37,0.13,2.49,1.42,2.65,2.97c0.07,0.67-0.15,0.97-0.81,0.99C266.48,445.48,265.64,445.53,264.51,445.59z"/>
		<path class="st0" d="M338.82,411.3c0-0.24-0.06-0.5,0.01-0.71c0.21-0.6-0.58-1.62,0.63-1.8c1.78-0.26,2.93,0.4,3.18,1.72    c0.44,2.25-0.98,3.7-3.28,3.39c-0.4-0.05-0.56-0.18-0.55-0.58C338.84,412.65,338.82,411.98,338.82,411.3z"/>
	</g>
</g>
</svg>