<svg xmlns="http://www.w3.org/2000/svg" viewBox="0 0 25 25">
  <defs>
    <style>.cls-1{fill:#fff}</style>
  </defs>
  <g id="schedule">
    <path class="cls-1" d="M22.5 3H21V2a1 1 0 0 0-1-1h-1a1 1 0 0 0-1 1v1h-4V2a1 1 0 0 0-1-1h-1a1 1 0 0 0-1 1v1H7V2a1 1 0 0 0-1-1H5a1 1 0 0 0-1 1v1H2.5A1.5 1.5 0 0 0 1 4.5v18A1.5 1.5 0 0 0 2.5 24h16a5.51 5.51 0 0 0 5.5-5.5v-.13c0-.05 0 0 0 0V4.5A1.5 1.5 0 0 0 22.5 3zM19 2h1v3h-1zm-7 0h1v3h-1zM5 2h1v3H5zM2.5 4H4v1a1 1 0 0 0 1 1h1a1 1 0 0 0 1-1V4h4v1a1 1 0 0 0 1 1h1a1 1 0 0 0 1-1V4h4v1a1 1 0 0 0 1 1h1a1 1 0 0 0 1-1V4h1.5a.5.5 0 0 1 .5.5V8H2V4.5a.5.5 0 0 1 .5-.5zm16 19a4.5 4.5 0 1 1 4.5-4.5 4.51 4.51 0 0 1-4.5 4.5zm0-10a5.49 5.49 0 0 0-3.15 10H2.5a.5.5 0 0 1-.5-.5V9h21v6.35A5.49 5.49 0 0 0 18.5 13z"/>
    <path class="cls-1" d="M20.72 19.05 19 18.19V16.5a.5.5 0 0 0-1 0v2a.51.51 0 0 0 .28.45l2 1a.54.54 0 0 0 .22.05.5.5 0 0 0 .22-.95z"/>
  </g>
</svg>
